<?xml version="1.0" encoding="UTF-8" standalone="no"?>
<svg
   xmlns:dc="http://purl.org/dc/elements/1.1/"
   xmlns:cc="http://creativecommons.org/ns#"
   xmlns:rdf="http://www.w3.org/1999/02/22-rdf-syntax-ns#"
   xmlns:svg="http://www.w3.org/2000/svg"
   xmlns="http://www.w3.org/2000/svg"
   xmlns:sodipodi="http://sodipodi.sourceforge.net/DTD/sodipodi-0.dtd"
   xmlns:inkscape="http://www.inkscape.org/namespaces/inkscape"
   version="1.1"
   id="svg10"
   xml:space="preserve"
   width="310"
   height="93"
   viewBox="0 0 541.29333 163.10667"
   sodipodi:docname="DLR_Logo_EN_bk.svg"
   inkscape:version="1.0.2 (e86c8708, 2021-01-15)"><metadata
     id="metadata16"><rdf:RDF><cc:Work
         rdf:about=""><dc:format>image/svg+xml</dc:format><dc:type
           rdf:resource="http://purl.org/dc/dcmitype/StillImage" /><dc:title></dc:title></cc:Work></rdf:RDF></metadata><defs
     id="defs14" /><sodipodi:namedview
     pagecolor="#ffffff"
     bordercolor="#666666"
     borderopacity="1"
     objecttolerance="10"
     gridtolerance="10"
     guidetolerance="10"
     inkscape:pageopacity="0"
     inkscape:pageshadow="2"
     inkscape:window-width="1633"
     inkscape:window-height="640"
     id="namedview12"
     showgrid="false"
     inkscape:zoom="1.3005887"
     inkscape:cx="270.64667"
     inkscape:cy="81.553337"
     inkscape:window-x="0"
     inkscape:window-y="25"
     inkscape:window-maximized="0"
     inkscape:current-layer="g18" /><g
     id="g18"
     inkscape:groupmode="layer"
     inkscape:label="ink_ext_XXXXXX"
     transform="matrix(1.3333333,0,0,-1.3333333,0,163.10667)"><g
       id="g20"
       transform="scale(0.1)"><path
         d="M 778.242,931.984 V 1223.26 L 487.379,931.984 H 237.781 L 0,694.172 292.781,694.148 V 402.102 L 584.961,694.25 H 832.383 L 1070,931.984 Z M 718.5,1078.64 V 931.809 H 571.676 Z M 144.371,754.191 261.977,871.949 H 426.895 L 309.211,754.191 Z M 352.082,545.344 V 694.258 H 500.66 Z M 560.934,754.191 H 394.172 l 117.601,117.758 h 166.801 z m 247.015,0 H 645.52 L 763.125,871.949 H 925.637 L 807.949,754.191"
         style="fill:#231f20;fill-opacity:1;fill-rule:nonzero;stroke:none"
         id="path22" /><path
         d="M 634.566,519.297 H 585.98 V 341.711 h 48.586 c 54.426,0 102.528,18.316 102.528,88.789 0,70.445 -48.102,88.797 -102.528,88.797 z m 6.864,-149.602 h -19.813 v 121.606 h 19.813 c 29.754,0 58.515,-22.141 58.515,-60.801 0,-38.676 -28.761,-60.805 -58.515,-60.805"
         style="fill:#231f20;fill-opacity:1;fill-rule:nonzero;stroke:none"
         id="path24" /><path
         d="m 774.809,519.297 h 35.636 V 369.695 h 68.934 v -27.984 h -104.57 v 177.586 0"
         style="fill:#231f20;fill-opacity:1;fill-rule:nonzero;stroke:none"
         id="path26" /><path
         d="m 1015.62,411.172 c -3.55,7.859 -9.16,17.551 -18.839,18.312 v 0.504 c 22.639,3.047 36.659,20.356 36.659,41.211 0,49.36 -45.569,48.098 -83.737,48.098 H 911.289 V 341.711 h 35.641 v 73.758 h 11.437 c 14.996,0 19.574,-5.071 24.684,-18.289 l 21.369,-55.469 h 39.68 z m -56.968,32.305 H 946.93 v 47.824 h 11.722 c 17.778,0 37.637,-1.797 37.637,-23.164 0,-22.114 -20.105,-24.66 -37.637,-24.66"
         style="fill:#231f20;fill-opacity:1;fill-rule:nonzero;stroke:none"
         id="path28" /><path
         d="m 1371.62,473.352 h -29.78 v 16.304 c 0,10.199 3.56,20.102 14.99,20.102 7.42,0 11.68,-2.754 14.79,-4.582 l 2.8,28.269 c -6.59,1.528 -16.28,2.832 -24.96,2.832 -27,0 -41.74,-18.347 -41.74,-44.605 v -18.32 h -25.22 v -24.946 h 25.22 V 342.207 h 34.12 v 106.199 h 29.78 v 24.946"
         style="fill:#231f20;fill-opacity:1;fill-rule:nonzero;stroke:none"
         id="path30" /><path
         d="m 1476.01,409.211 c 0,-16.801 -5.38,-43.559 -30.07,-43.559 -21.89,0 -22.17,21.653 -22.17,37.715 v 69.985 h -34.05 v -82.747 c 0,-29.519 13.45,-51.433 44.51,-51.433 17.88,0 32.61,8.144 43.05,20.84 h 0.53 v -17.805 h 32.31 v 131.145 h -34.11 v -64.141"
         style="fill:#231f20;fill-opacity:1;fill-rule:nonzero;stroke:none"
         id="path32" /><path
         d="m 2146.3,369.219 c -3.64,-2.324 -9.44,-3.567 -15.55,-3.567 -12.97,0 -16.05,10.461 -16.05,21.653 v 61.101 h 30.28 v 24.946 h -30.28 v 37.183 l -34.15,-10.945 v -26.238 h -25.17 v -24.946 h 25.17 v -66.734 c 0,-25.938 14.81,-42.5 41.52,-42.5 10.24,0 18.09,1.023 25.23,3.035 l -1,27.012"
         style="fill:#231f20;fill-opacity:1;fill-rule:nonzero;stroke:none"
         id="path34" /><path
         d="m 1909.57,360.012 v -17.805 h 32.35 v 131.145 h -34.16 v -64.141 c 0,-16.801 -5.36,-43.559 -30.03,-43.559 -21.84,0 -22.14,21.653 -22.14,37.715 v 69.985 h -34.09 v -82.747 c 0,-29.519 13.51,-51.433 44.55,-51.433 17.8,0 32.58,8.144 43.03,20.84 h 0.49"
         style="fill:#231f20;fill-opacity:1;fill-rule:nonzero;stroke:none"
         id="path36" /><path
         d="m 2050.1,473.352 h -29.84 v 16.304 c 0,10.199 3.59,20.102 15.03,20.102 7.44,0 11.71,-2.754 14.81,-4.582 l 2.79,28.269 c -6.68,1.528 -16.34,2.832 -25,2.832 -26.93,0 -41.71,-18.347 -41.71,-44.605 v -18.32 H 1961 v -24.946 h 25.18 V 342.207 h 34.08 v 106.199 h 29.84 v 24.946"
         style="fill:#231f20;fill-opacity:1;fill-rule:nonzero;stroke:none"
         id="path38" /><path
         d="m 1708.48,654.148 h 0.46 v -17.8 h 32.33 V 767.48 h -34.13 v -64.226 c 0,-16.762 -5.32,-43.481 -30.01,-43.481 -21.88,0 -22.17,21.653 -22.17,37.668 v 70.039 h -34.12 v -82.773 c 0,-29.519 13.52,-51.394 44.56,-51.394 17.84,0 32.61,8.125 43.08,20.835"
         style="fill:#231f20;fill-opacity:1;fill-rule:nonzero;stroke:none"
         id="path40" /><path
         d="m 2685.26,664.316 h -86.1 l 84.29,120.739 v 29.023 h -118.1 v -28.023 h 80.21 l -83.6,-120.684 v -29.023 h 123.3 v 27.968"
         style="fill:#231f20;fill-opacity:1;fill-rule:nonzero;stroke:none"
         id="path42" /><path
         d="m 2271.27,691.34 h 90.57 c 0,45.855 -13.7,79.219 -62.32,79.219 -40.73,0 -60.92,-31.309 -60.92,-69.282 0,-43.043 25.24,-67.964 68.59,-67.964 18.35,0 32.56,3.535 44.99,10.41 v 27.781 c -12.66,-7.188 -26.96,-13.27 -43.55,-13.27 -21.09,0 -35.87,11.981 -37.36,33.106 z m 30.3,54.258 c 19.14,0 26.73,-14.239 27.75,-30.825 h -58.05 c 1.49,17.532 11.23,30.825 30.3,30.825"
         style="fill:#231f20;fill-opacity:1;fill-rule:nonzero;stroke:none"
         id="path44" /><path
         d="m 2128.65,700.52 c 0,16.785 5.4,43.523 30.02,43.523 21.94,0 22.15,-21.648 22.15,-37.715 v -69.98 h 34.2 v 82.707 c 0,29.59 -13.51,51.504 -44.61,51.504 -17.75,0 -32.55,-8.184 -41.23,-20.879 h -0.53 v 77.644 h -34.11 V 636.348 h 34.11 v 64.172"
         style="fill:#231f20;fill-opacity:1;fill-rule:nonzero;stroke:none"
         id="path46" /><path
         d="m 2876.46,700.52 c 0,16.785 5.35,43.523 30.05,43.523 21.9,0 22.16,-21.648 22.16,-37.715 v -69.98 h 34.11 v 82.707 c 0,29.59 -13.47,51.504 -44.62,51.504 -17.73,0 -32.28,-5.871 -42.97,-20.879 h -0.49 v 17.8 h -32.32 V 636.348 h 34.08 v 64.172"
         style="fill:#231f20;fill-opacity:1;fill-rule:nonzero;stroke:none"
         id="path48" /><path
         d="m 3227.11,633.313 c 17.8,0 32.52,8.125 43.01,20.835 h 0.48 v -17.8 h 32.33 V 767.48 h -34.08 v -64.226 c 0,-16.762 -5.36,-43.481 -30.06,-43.481 -21.87,0 -22.15,21.653 -22.15,37.668 v 70.039 h -34.16 v -82.773 c 0,-29.519 13.53,-51.394 44.63,-51.394"
         style="fill:#231f20;fill-opacity:1;fill-rule:nonzero;stroke:none"
         id="path50" /><path
         d="m 3915.8,390.332 c 0,18.879 0,53.508 27.79,53.508 6.06,0 12.17,-1.02 15.24,-2.863 v 34.464 c -3.56,0.938 -7.1,0.938 -10.36,0.938 -20.39,0 -34.43,-20.606 -36.01,-32.774 h -0.44 v 29.747 H 3881.7 V 342.207 h 34.1 v 48.125"
         style="fill:#231f20;fill-opacity:1;fill-rule:nonzero;stroke:none"
         id="path52" /><path
         d="m 2040.84,633.313 c 13.99,0 24.2,1.25 34.11,4.316 l -1.52,28.223 c -5.85,-2.539 -16.56,-6.079 -26.23,-6.079 -23.9,0 -35.39,18.579 -35.39,42.766 0,24.719 13.54,41.504 34.62,41.504 10.44,0 17.09,-2.031 23.18,-4.793 l 3.03,26.941 c -9.37,2.825 -19.34,4.368 -33.09,4.368 -40.98,0 -63.34,-30.059 -63.34,-68.02 0,-39.949 21.66,-69.226 64.63,-69.226"
         style="fill:#231f20;fill-opacity:1;fill-rule:nonzero;stroke:none"
         id="path54" /><path
         d="m 3122.71,684.465 c 0,18.789 0,53.457 27.7,53.457 6.11,0 12.22,-0.981 15.28,-2.824 v 34.445 c -3.54,1.016 -7.09,1.016 -10.4,1.016 -20.39,0 -34.43,-20.637 -35.92,-32.871 h -0.51 v 29.792 h -30.35 V 636.348 h 34.2 v 48.117"
         style="fill:#231f20;fill-opacity:1;fill-rule:nonzero;stroke:none"
         id="path56" /><path
         d="m 3002.98,675.813 c 0,-25.989 14.76,-42.5 41.51,-42.5 10.17,0 18.07,0.972 25.23,3.035 l -1.06,26.965 c -3.54,-2.278 -9.38,-3.54 -15.46,-3.54 -13.04,0 -16.07,10.442 -16.07,21.653 v 61.101 h 30.3 v 24.953 h -30.3 v 37.161 l -34.15,-10.95 V 767.48 h -25.14 v -24.953 h 25.14 v -66.714"
         style="fill:#231f20;fill-opacity:1;fill-rule:nonzero;stroke:none"
         id="path58" /><path
         d="m 1491.03,526.816 h -29.55 v -29.5 h 29.55 v 29.5"
         style="fill:#231f20;fill-opacity:1;fill-rule:nonzero;stroke:none"
         id="path60" /><path
         d="m 1355.28,814.078 h -48.65 v -177.73 h 48.65 c 54.5,0 102.6,18.308 102.6,88.855 0,70.52 -48.1,88.875 -102.6,88.875 z m 6.87,-149.762 h -19.83 v 121.739 h 19.83 c 29.8,0 58.55,-22.149 58.55,-60.852 0,-38.711 -28.75,-60.887 -58.55,-60.887"
         style="fill:#231f20;fill-opacity:1;fill-rule:nonzero;stroke:none"
         id="path62" /><path
         d="m 1409.04,497.316 h 29.55 v 29.5 h -29.55 v -29.5"
         style="fill:#231f20;fill-opacity:1;fill-rule:nonzero;stroke:none"
         id="path64" /><path
         d="m 1784.57,675.813 c 0,-25.989 14.76,-42.5 41.46,-42.5 10.17,0 18.09,0.972 25.26,3.035 l -1.08,26.965 c -3.51,-2.278 -9.37,-3.54 -15.49,-3.54 -12.96,0 -16.04,10.442 -16.04,21.653 v 61.101 h 30.28 v 24.953 h -30.28 v 37.161 l -34.11,-10.95 V 767.48 h -25.21 v -24.953 h 25.21 v -66.714"
         style="fill:#231f20;fill-opacity:1;fill-rule:nonzero;stroke:none"
         id="path66" /><path
         d="m 1926.61,674.27 c 0,-12.739 -13.82,-16.036 -22.43,-16.036 -11.72,0 -22.88,3.297 -33.56,8.668 l -2.05,-28.023 c 12.45,-3.313 25.7,-5.566 38.69,-5.566 27.74,0 54.95,12.187 54.95,42.734 0,47.359 -59.3,34.148 -59.3,55.039 0,11.172 10.96,14.512 20.1,14.512 12.5,0 20.1,-2.051 30.56,-5.61 l 2.25,25.715 c -10.64,2.285 -21.1,4.856 -37.12,4.856 -26.72,0 -51.39,-12.512 -51.39,-40.786 0,-47.324 59.3,-29.773 59.3,-55.503"
         style="fill:#231f20;fill-opacity:1;fill-rule:nonzero;stroke:none"
         id="path68" /><path
         d="M 1705.65,519.98 V 342.207 h 104.69 v 28.027 h -69 V 519.98 h -35.69"
         style="fill:#231f20;fill-opacity:1;fill-rule:nonzero;stroke:none"
         id="path70" /><path
         d="m 1572.24,443.605 h -0.49 v 29.747 h -30.31 V 342.207 h 34.17 v 48.125 c 0,18.879 0,53.508 27.69,53.508 6.17,0 12.27,-1.02 15.28,-2.863 v 34.464 c -3.56,0.938 -7.12,0.938 -10.4,0.938 -20.41,0 -34.43,-20.606 -35.94,-32.774"
         style="fill:#231f20;fill-opacity:1;fill-rule:nonzero;stroke:none"
         id="path72" /><path
         d="m 1508.55,691.34 h 90.67 c 0,45.855 -13.75,79.219 -62.42,79.219 -40.71,0 -60.85,-31.309 -60.85,-69.282 0,-43.043 25.17,-67.964 68.51,-67.964 18.32,0 32.61,3.535 45.11,10.41 v 27.781 c -12.77,-7.188 -27.01,-13.27 -43.56,-13.27 -21.17,0 -35.89,11.981 -37.46,33.106 z m 30.31,54.258 c 19.07,0 26.72,-14.239 27.75,-30.825 h -58.06 c 1.57,17.532 11.22,30.825 30.31,30.825"
         style="fill:#231f20;fill-opacity:1;fill-rule:nonzero;stroke:none"
         id="path74" /><path
         d="m 2156.48,396.699 h 66.9 v 28.028 h -66.9 v -28.028"
         style="fill:#231f20;fill-opacity:1;fill-rule:nonzero;stroke:none"
         id="path76" /><path
         d="m 3698.89,371.504 c -0.28,9.695 -0.5,19.621 -0.5,32.844 v 16.812 c 0,38.695 -16.6,55.219 -56.5,55.219 -14.59,0 -32.35,-3.789 -45.6,-9.926 l 0.98,-29.234 c 11.48,8.672 26,14.265 40.52,14.265 20.14,0 29.54,-7.16 29.54,-28.261 h -18.84 c -14.28,0 -31.12,-1.336 -44.05,-7.688 -12.99,-6.324 -22.39,-17.793 -22.39,-37.422 0,-24.937 22.68,-38.941 45.9,-38.941 15.49,0 32.52,8.144 40.34,22.652 h 0.55 c 0.2,-4.043 0.2,-12.722 1.55,-19.617 h 30.1 c -0.88,10.195 -1.35,19.356 -1.6,29.297 z m -38.67,4.309 c -5.41,-7.114 -13.54,-11.692 -23.95,-11.692 -12.23,0 -21.6,4.832 -21.6,16.055 0,20.105 22.64,22.629 37.9,22.629 h 14.76 c 0,-10.168 -1.55,-19.582 -7.11,-26.992"
         style="fill:#231f20;fill-opacity:1;fill-rule:nonzero;stroke:none"
         id="path78" /><path
         d="m 3512.25,342.207 h 34.18 v 106.199 h 29.77 v 24.946 h -29.77 v 16.304 c 0,10.199 3.52,20.102 14.98,20.102 7.42,0 11.72,-2.754 14.79,-4.582 l 2.76,28.269 c -6.6,1.528 -16.29,2.832 -24.95,2.832 -26.96,0 -41.76,-18.347 -41.76,-44.605 v -18.32 h -25.18 v -24.946 h 25.18 V 342.207"
         style="fill:#231f20;fill-opacity:1;fill-rule:nonzero;stroke:none"
         id="path80" /><path
         d="m 3429.74,476.379 c -16.01,0 -33.06,-7.348 -40.97,-23.106 -7.41,16.25 -20.37,23.106 -38.66,23.106 -12.77,0 -28.33,-5.293 -38.95,-21.328 h -0.48 v 18.301 h -31.86 V 342.207 h 34.07 v 63.684 c 0,17.078 2.79,44.031 25.43,44.031 19.69,0 19.69,-17.274 19.69,-29.512 v -78.203 h 34.06 v 63.684 c 0,17.078 2.87,44.031 25.48,44.031 19.58,0 19.58,-17.274 19.58,-29.512 v -78.203 h 34.16 v 82.766 c 0,29.277 -9.2,51.406 -41.55,51.406"
         style="fill:#231f20;fill-opacity:1;fill-rule:nonzero;stroke:none"
         id="path82" /><path
         d="m 3814.98,412.219 v -70.012 h 34.16 v 82.766 c 0,29.55 -13.5,51.406 -44.59,51.406 -17.79,0 -32.55,-8.125 -41.21,-20.832 h -0.51 v 77.676 H 3728.7 V 342.207 h 34.13 v 64.211 c 0,16.805 5.35,43.504 30.05,43.504 21.9,0 22.1,-21.649 22.1,-37.703"
         style="fill:#231f20;fill-opacity:1;fill-rule:nonzero;stroke:none"
         id="path84" /><path
         d="m 3491.58,636.348 h 34.1 v 82.707 c 0,29.336 -9.16,51.504 -41.48,51.504 -16.01,0 -33.08,-7.422 -40.99,-23.215 -7.33,16.281 -20.41,23.215 -38.66,23.215 -12.79,0 -28.3,-5.391 -39.01,-21.45 h -0.46 v 18.371 h -31.85 V 636.348 h 34.09 V 700 c 0,17.07 2.87,44.043 25.51,44.043 19.62,0 19.62,-17.313 19.62,-29.539 v -78.156 h 34.07 V 700 c 0,17.07 2.86,44.043 25.48,44.043 19.58,0 19.58,-17.313 19.58,-29.539 v -78.156"
         style="fill:#231f20;fill-opacity:1;fill-rule:nonzero;stroke:none"
         id="path86" /><path
         d="m 4059.68,342.207 -1.06,27.012 c -3.56,-2.324 -9.37,-3.567 -15.51,-3.567 -12.97,0 -16.02,10.461 -16.02,21.653 v 61.101 h 30.29 v 24.946 h -30.29 v 37.183 l -34.11,-10.945 v -26.238 h -25.22 v -24.946 h 25.22 v -66.734 c 0,-25.938 14.76,-42.5 41.45,-42.5 10.27,0 18.11,1.023 25.25,3.035"
         style="fill:#231f20;fill-opacity:1;fill-rule:nonzero;stroke:none"
         id="path88" /><path
         d="m 2704.81,533.223 v -75.098 h -0.45 c -10.15,12.473 -22.17,18.254 -39.2,18.254 -40.24,0 -54.97,-32.055 -54.97,-68.203 0,-35.918 14.73,-69.004 54.97,-69.004 16.05,0 30.06,5.078 40.23,17.832 h 0.5 v -14.797 h 33.15 v 191.016 z m -30.17,-167.571 c -22.43,0 -28.86,24.457 -28.86,42.524 0,17.586 6.19,41.746 28.35,41.746 21.85,0 30.51,-23.406 30.51,-41.746 0,-18.598 -7.43,-42.524 -30,-42.524"
         style="fill:#231f20;fill-opacity:1;fill-rule:nonzero;stroke:none"
         id="path90" /><path
         d="m 2402.18,360.012 v -17.805 h 32.32 v 131.145 h -34.13 v -64.141 c 0,-16.801 -5.35,-43.559 -29.98,-43.559 -21.93,0 -22.19,21.653 -22.19,37.715 v 69.985 h -34.1 v -82.747 c 0,-29.519 13.47,-51.433 44.5,-51.433 17.85,0 32.57,8.144 43.06,20.84 h 0.52"
         style="fill:#231f20;fill-opacity:1;fill-rule:nonzero;stroke:none"
         id="path92" /><path
         d="m 2412.82,731.086 c 0,11.172 11,14.512 20.13,14.512 12.46,0 20.1,-2.051 30.5,-5.61 l 2.35,25.715 c -10.69,2.285 -21.23,4.856 -37.13,4.856 -26.76,0 -51.48,-12.512 -51.48,-40.786 0,-47.324 59.3,-29.773 59.3,-55.503 0,-12.739 -13.77,-16.036 -22.35,-16.036 -11.76,0 -22.97,3.297 -33.69,8.668 l -2.05,-28.023 c 12.51,-3.313 25.74,-5.566 38.75,-5.566 27.77,0 54.98,12.187 54.98,42.734 0,47.359 -59.31,34.148 -59.31,55.039"
         style="fill:#231f20;fill-opacity:1;fill-rule:nonzero;stroke:none"
         id="path94" /><path
         d="m 2500.48,406.418 c 0,16.805 5.32,43.504 30.03,43.504 21.94,0 22.14,-21.649 22.14,-37.703 v -70.012 h 34.13 v 82.766 c 0,29.55 -13.52,51.406 -44.59,51.406 -17.85,0 -32.36,-5.781 -43.05,-20.832 h -0.48 v 17.805 h -32.29 V 342.207 h 34.11 v 64.211"
         style="fill:#231f20;fill-opacity:1;fill-rule:nonzero;stroke:none"
         id="path96" /><path
         d="m 3214.61,360.012 h 0.54 v -17.805 h 32.31 v 131.145 h -34.1 v -64.141 c 0,-16.801 -5.36,-43.559 -30.06,-43.559 -21.89,0 -22.12,21.653 -22.12,37.715 v 69.985 h -34.16 v -82.747 c 0,-29.519 13.52,-51.433 44.55,-51.433 17.88,0 32.56,8.144 43.04,20.84"
         style="fill:#231f20;fill-opacity:1;fill-rule:nonzero;stroke:none"
         id="path98" /><path
         d="m 3101.58,371.504 c -0.25,9.695 -0.54,19.621 -0.54,32.844 v 16.812 c 0,38.695 -16.51,55.219 -56.51,55.219 -14.49,0 -32.33,-3.789 -45.54,-9.926 l 1.01,-29.234 c 11.51,8.672 25.97,14.265 40.5,14.265 20.07,0 29.48,-7.16 29.48,-28.261 h -18.81 c -14.24,0 -31.06,-1.336 -44.1,-7.688 -12.91,-6.324 -22.38,-17.793 -22.38,-37.422 0,-24.937 22.7,-38.941 45.82,-38.941 15.49,0 32.61,8.144 40.5,22.652 h 0.5 c 0.25,-4.043 0.25,-12.722 1.49,-19.617 h 30.13 c -0.78,10.195 -1.3,19.356 -1.55,29.297 z m -38.67,4.309 c -5.37,-7.114 -13.5,-11.692 -23.92,-11.692 -12.27,0 -21.69,4.832 -21.69,16.055 0,20.105 22.7,22.629 37.97,22.629 h 14.71 c 0,-10.168 -1.51,-19.582 -7.07,-26.992"
         style="fill:#231f20;fill-opacity:1;fill-rule:nonzero;stroke:none"
         id="path100" /><path
         d="m 2945.25,411.73 c -3.63,7.887 -9.19,17.567 -18.88,18.336 v 0.508 c 22.72,3.059 36.65,20.371 36.65,41.281 0,49.368 -45.5,48.125 -83.68,48.125 h -38.48 V 342.207 h 35.64 v 73.84 h 11.43 c 15.02,0 19.64,-5.078 24.76,-18.305 l 21.33,-55.535 h 39.73 z m -57,32.34 h -11.75 v 47.871 h 11.75 c 17.82,0 37.7,-1.773 37.7,-23.179 0,-22.141 -20.22,-24.692 -37.7,-24.692"
         style="fill:#231f20;fill-opacity:1;fill-rule:nonzero;stroke:none"
         id="path102" /><path
         d="m 2729.29,691.34 h 90.64 c 0,45.855 -13.72,79.219 -62.38,79.219 -40.73,0 -60.89,-31.309 -60.89,-69.282 0,-43.043 25.26,-67.964 68.57,-67.964 18.3,0 32.52,3.535 45.07,10.41 v 27.781 c -12.82,-7.188 -27.04,-13.27 -43.56,-13.27 -21.13,0 -35.92,11.981 -37.45,33.106 z m 30.34,54.258 c 19.07,0 26.69,-14.239 27.69,-30.825 h -58.03 c 1.53,17.532 11.21,30.825 30.34,30.825"
         style="fill:#231f20;fill-opacity:1;fill-rule:nonzero;stroke:none"
         id="path104" /><path
         d="m 1417.57,125.574 h -38.52 v 14.262 h 54.94 V 57.3164 c -16.89,-7.3828 -33.29,-10.2383 -51.61,-10.2383 -52.32,0 -83.72,34.4922 -83.72,85.8709 0,50.41 32.35,85.828 83.72,85.828 12.6,0 33.29,-2.129 44.47,-7.839 l -1.9,-15.223 c -12.84,7.144 -28.06,8.808 -42.57,8.808 -43.05,0 -67.31,-30.429 -67.31,-71.574 0,-41.8631 23.55,-71.5896 67.31,-71.5896 10.23,0 27.35,1.1914 35.19,5.9375 v 58.2771"
         style="fill:#231f20;fill-opacity:1;fill-rule:nonzero;stroke:none"
         id="path106" /><path
         d="m 1555.27,53.7617 c -10.47,-4.3086 -24.02,-6.6836 -35.2,-6.6836 -40.19,0 -55.17,27.1133 -55.17,63.5079 0,37.102 20.45,63.508 51.13,63.508 34.24,0 48.27,-27.61 48.27,-60.188 v -7.59 h -83 c 0,-25.7027 13.8,-46.3941 39.96,-46.3941 10.94,0 26.87,4.5312 34.01,9.0429 z m -7.38,65.3863 c 0,21.157 -8.56,42.102 -30.9,42.102 -22.13,0 -35.69,-22.141 -35.69,-42.102 h 66.59"
         style="fill:#231f20;fill-opacity:1;fill-rule:nonzero;stroke:none"
         id="path108" /><path
         d="m 1592.84,144.121 c 0,13.32 0,18.313 -0.95,27.102 h 14.99 v -23.301 h 0.48 c 5.45,13.555 15.69,26.172 31.14,26.172 3.58,0 7.85,-0.715 10.46,-1.438 v -15.691 c -3.08,0.933 -7.13,1.426 -10.93,1.426 -23.78,0 -30.2,-26.653 -30.2,-48.508 V 49.9336 h -14.99 v 94.1874"
         style="fill:#231f20;fill-opacity:1;fill-rule:nonzero;stroke:none"
         id="path110" /><path
         d="m 1818.53,49.9336 v 80.6254 c 0,17.129 -6.42,30.691 -25.69,30.691 -16.4,0 -32.58,-14.055 -32.58,-44.238 V 49.9336 h -14.99 v 80.6254 c 0,17.129 -6.4,30.691 -25.68,30.691 -16.4,0 -32.57,-14.055 -32.57,-44.238 V 49.9336 h -14.99 v 92.7544 c 0,9.285 0,18.789 -0.94,28.535 h 14.5 v -20.45 l 0.48,-0.238 c 4.75,8.332 11.88,23.559 37.82,23.559 10.68,0 28.29,-4.531 32.1,-25.703 h 0.47 c 5.47,14.277 19.74,25.703 38.77,25.703 24.49,0 38.28,-17.129 38.28,-40.676 V 49.9336 h -14.98"
         style="fill:#231f20;fill-opacity:1;fill-rule:nonzero;stroke:none"
         id="path112" /><path
         d="m 1939.82,69.4414 h -0.48 c -6.66,-14.5 -23.54,-22.3633 -38.52,-22.3633 -34.49,0 -39.96,23.3203 -39.96,34.25 0,40.6639 43.3,42.5699 74.67,42.5699 h 2.85 v 6.18 c 0,20.695 -7.36,31.172 -27.57,31.172 -12.61,0 -24.51,-2.859 -35.67,-9.988 v 14.492 c 9.27,4.519 24.97,8.34 35.67,8.34 29.97,0 42.56,-13.567 42.56,-45.196 V 75.3828 c 0,-9.7578 0,-17.1211 1.2,-25.4492 h -14.75 z m -1.44,41.6136 h -4.27 c -25.92,0 -56.83,-2.61 -56.83,-29.2464 0,-15.9414 11.41,-21.8867 25.2,-21.8867 35.21,0 35.9,30.6758 35.9,43.7691 v 7.364"
         style="fill:#231f20;fill-opacity:1;fill-rule:nonzero;stroke:none"
         id="path114" /><path
         d="m 1989.06,142.688 c 0,9.285 0,18.789 -0.96,28.535 h 14.52 v -21.621 h 0.47 c 4.98,10.925 14.02,24.492 39.24,24.492 29.97,0 41.38,-19.992 41.38,-46.633 V 49.9336 h -14.96 V 123.66 c 0,22.824 -8.13,37.59 -28.81,37.59 -27.35,0 -35.89,-24.031 -35.89,-44.238 V 49.9336 h -14.99 v 92.7544"
         style="fill:#231f20;fill-opacity:1;fill-rule:nonzero;stroke:none"
         id="path116" /><path
         d="m 2239.7,215.938 h 18.54 l 65.9,-166.0044 h -17.13 l -17.81,44.4805 h -83.74 l -17.84,-44.4805 h -15.92 z m 8.1,-15.696 -36.16,-91.558 h 72.07 z"
         style="fill:#231f20;fill-opacity:1;fill-rule:nonzero;stroke:none"
         id="path118" /><path
         d="m 2427.36,53.7617 c -10.48,-4.3086 -24.04,-6.6836 -35.21,-6.6836 -40.2,0 -55.16,27.1133 -55.16,63.5079 0,37.102 20.45,63.508 51.11,63.508 34.24,0 48.28,-27.61 48.28,-60.188 v -7.59 h -82.99 c 0,-25.7027 13.78,-46.3941 39.95,-46.3941 10.93,0 26.88,4.5312 34.02,9.0429 z m -7.4,65.3863 c 0,21.157 -8.54,42.102 -30.89,42.102 -22.11,0 -35.68,-22.141 -35.68,-42.102 h 66.57"
         style="fill:#231f20;fill-opacity:1;fill-rule:nonzero;stroke:none"
         id="path120" /><path
         d="m 2464.93,144.121 c 0,13.32 0,18.313 -0.94,27.102 h 14.97 v -23.301 h 0.49 c 5.45,13.555 15.68,26.172 31.12,26.172 3.57,0 7.86,-0.715 10.48,-1.438 v -15.691 c -3.09,0.933 -7.14,1.426 -10.93,1.426 -23.81,0 -30.2,-26.653 -30.2,-48.508 V 49.9336 h -14.99 v 94.1874"
         style="fill:#231f20;fill-opacity:1;fill-rule:nonzero;stroke:none"
         id="path122" /><path
         d="m 2587.15,174.094 c 39.25,0 56.6,-30.449 56.6,-63.508 0,-33.0587 -17.35,-63.5079 -56.6,-63.5079 -39.22,0 -56.57,30.4492 -56.57,63.5079 0,33.059 17.35,63.508 56.57,63.508 z m 0,-114.1721 c 26.15,0 40.21,22.5976 40.21,50.6641 0,28.059 -14.06,50.664 -40.21,50.664 -26.13,0 -40.18,-22.605 -40.18,-50.664 0,-28.0665 14.05,-50.6641 40.18,-50.6641"
         style="fill:#231f20;fill-opacity:1;fill-rule:nonzero;stroke:none"
         id="path124" /><path
         d="m 2662.79,67.5273 c 9.04,-4.5 19.97,-7.6054 31.63,-7.6054 14.26,0 26.88,7.8437 26.88,21.6484 0,28.7817 -58.28,24.2577 -58.28,59.4527 0,24.028 19.5,33.071 39.48,33.071 6.41,0 19.27,-1.438 29.96,-5.489 l -1.42,-13.07 c -7.84,3.567 -18.54,5.715 -26.88,5.715 -15.45,0 -26.16,-4.773 -26.16,-20.227 0,-22.585 59.69,-19.746 59.69,-59.4527 0,-25.6797 -24,-34.4922 -42.3,-34.4922 -11.68,0 -23.32,1.4297 -34.04,5.7266 l 1.44,14.7226"
         style="fill:#231f20;fill-opacity:1;fill-rule:nonzero;stroke:none"
         id="path126" /><path
         d="m 2763.14,171.223 h 15.01 l -0.98,-22.102 h 0.49 c 3.81,6.641 13.08,24.973 38.76,24.973 35.67,0 49.94,-26.653 49.94,-63.508 0,-35.9297 -16.65,-63.5079 -49.94,-63.5079 -19.02,0 -30.43,7.8633 -37.82,23.5586 h -0.45 V 0 h -15.01 z m 50.9,-9.973 c -26.62,0 -35.89,-28.547 -35.89,-50.664 0,-22.1172 9.27,-50.6641 35.89,-50.6641 28.55,0 35.92,27.1211 35.92,50.6641 0,23.555 -7.37,50.664 -35.92,50.664"
         style="fill:#231f20;fill-opacity:1;fill-rule:nonzero;stroke:none"
         id="path128" /><path
         d="m 2966.48,69.4414 h -0.47 c -6.66,-14.5 -23.55,-22.3633 -38.55,-22.3633 -34.48,0 -39.94,23.3203 -39.94,34.25 0,40.6639 43.3,42.5699 74.68,42.5699 h 2.87 v 6.18 c 0,20.695 -7.38,31.172 -27.59,31.172 -12.63,0 -24.5,-2.859 -35.7,-9.988 v 14.492 c 9.27,4.519 24.98,8.34 35.7,8.34 29.94,0 42.56,-13.567 42.56,-45.196 V 75.3828 c 0,-9.7578 0,-17.1211 1.19,-25.4492 h -14.75 z m -1.41,41.6136 h -4.3 c -25.93,0 -56.83,-2.61 -56.83,-29.2464 0,-15.9414 11.43,-21.8867 25.2,-21.8867 35.21,0 35.93,30.6758 35.93,43.7691 v 7.364"
         style="fill:#231f20;fill-opacity:1;fill-rule:nonzero;stroke:none"
         id="path130" /><path
         d="m 3094.65,155.059 c -8.07,3.566 -17.84,6.191 -25.9,6.191 -29.26,0 -45.68,-21.184 -45.68,-50.664 0,-27.586 16.65,-50.6641 44.02,-50.6641 9.49,0 18.3,2.1484 27.33,5.4687 l 1.42,-14.0312 c -10.2,-3.5664 -19.73,-4.2813 -31.16,-4.2813 -38.98,0 -58,29.7383 -58,63.5079 0,37.336 24,63.508 59.93,63.508 14.49,0 24.96,-3.34 29.23,-4.785 l -1.19,-14.25"
         style="fill:#231f20;fill-opacity:1;fill-rule:nonzero;stroke:none"
         id="path132" /><path
         d="m 3202.65,53.7617 c -10.5,-4.3086 -24.02,-6.6836 -35.22,-6.6836 -40.19,0 -55.17,27.1133 -55.17,63.5079 0,37.102 20.47,63.508 51.14,63.508 34.23,0 48.28,-27.61 48.28,-60.188 v -7.59 h -83.01 c 0,-25.7027 13.79,-46.3941 39.95,-46.3941 10.95,0 26.88,4.5312 34.03,9.0429 z m -7.4,65.3863 c 0,21.157 -8.55,42.102 -30.91,42.102 -22.11,0 -35.67,-22.141 -35.67,-42.102 h 66.58"
         style="fill:#231f20;fill-opacity:1;fill-rule:nonzero;stroke:none"
         id="path134" /><path
         d="m 3421.91,197.395 c -10.47,5.464 -25.43,7.128 -37.12,7.128 -43.02,0 -67.27,-30.429 -67.27,-71.574 0,-41.8631 23.53,-71.5896 67.27,-71.5896 10.97,0 27.61,1.4219 37.12,7.125 l 0.94,-14.2656 c -9.03,-5.4805 -27.57,-7.1407 -38.06,-7.1407 -52.29,0 -83.7,34.4922 -83.7,85.8709 0,50.41 32.35,85.828 83.7,85.828 9.76,0 29.5,-1.648 38.06,-6.187 l -0.94,-15.195"
         style="fill:#231f20;fill-opacity:1;fill-rule:nonzero;stroke:none"
         id="path136" /><path
         d="m 3546.29,53.7617 c -10.49,-4.3086 -24.03,-6.6836 -35.22,-6.6836 -40.18,0 -55.17,27.1133 -55.17,63.5079 0,37.102 20.47,63.508 51.14,63.508 34.25,0 48.28,-27.61 48.28,-60.188 v -7.59 h -82.98 c 0,-25.7027 13.77,-46.3941 39.92,-46.3941 10.96,0 26.88,4.5312 34.03,9.0429 z m -7.39,65.3863 c 0,21.157 -8.56,42.102 -30.92,42.102 -22.1,0 -35.64,-22.141 -35.64,-42.102 h 66.56"
         style="fill:#231f20;fill-opacity:1;fill-rule:nonzero;stroke:none"
         id="path138" /><path
         d="m 3583.84,142.688 c 0,9.285 0,18.789 -0.93,28.535 h 14.52 v -21.621 h 0.46 c 4.99,10.925 14.02,24.492 39.22,24.492 29.98,0 41.4,-19.992 41.4,-46.633 V 49.9336 h -14.98 V 123.66 c 0,22.824 -8.08,37.59 -28.79,37.59 -27.34,0 -35.91,-24.031 -35.91,-44.238 V 49.9336 h -14.99 v 92.7544"
         style="fill:#231f20;fill-opacity:1;fill-rule:nonzero;stroke:none"
         id="path140" /><path
         d="m 3768.4,158.391 h -27.58 V 79.9102 c 0,-10.9454 4.05,-19.9883 16.18,-19.9883 5.69,0 9.51,1.2109 13.77,2.8594 l 0.95,-12.3711 c -3.55,-1.4258 -10.92,-3.3321 -18.31,-3.3321 -26.62,0 -27.57,18.3125 -27.57,40.4414 v 70.8715 h -23.77 v 12.832 h 23.77 v 29.257 l 14.98,5.235 v -34.492 h 27.58 v -12.832"
         style="fill:#231f20;fill-opacity:1;fill-rule:nonzero;stroke:none"
         id="path142" /><path
         d="m 3876.62,53.7617 c -10.48,-4.3086 -24.05,-6.6836 -35.21,-6.6836 -40.18,0 -55.18,27.1133 -55.18,63.5079 0,37.102 20.47,63.508 51.13,63.508 34.26,0 48.28,-27.61 48.28,-60.188 v -7.59 h -83.01 c 0,-25.7027 13.8,-46.3941 39.97,-46.3941 10.93,0 26.86,4.5312 34.02,9.0429 z m -7.4,65.3863 c 0,21.157 -8.54,42.102 -30.9,42.102 -22.12,0 -35.69,-22.141 -35.69,-42.102 h 66.59"
         style="fill:#231f20;fill-opacity:1;fill-rule:nonzero;stroke:none"
         id="path144" /><path
         d="m 3914.18,144.121 c 0,13.32 0,18.313 -0.95,27.102 h 14.99 v -23.301 h 0.47 c 5.49,13.555 15.7,26.172 31.16,26.172 3.57,0 7.84,-0.715 10.48,-1.438 v -15.691 c -3.11,0.933 -7.16,1.426 -10.95,1.426 -23.79,0 -30.2,-26.653 -30.2,-48.508 V 49.9336 h -15 v 94.1874"
         style="fill:#231f20;fill-opacity:1;fill-rule:nonzero;stroke:none"
         id="path146" /></g></g></svg>
