<svg xmlns="http://www.w3.org/2000/svg" viewBox="0 0 351.55 176.04"><defs><style>.cls-1{fill:#00b5d6;}.cls-2{fill:#4d4d4d;}.cls-3{fill:#5e5e5e;}.cls-4{fill:#898989;opacity:0.5;}</style></defs><title>logo-frachwerk</title><g id="Ebene_2" data-name="Ebene 2"><g id="logo-frachtwerk"><g id="font"><path class="cls-1" d="M2,128H33.66c.64,0,1,.37,1,1.09l-.07,5.75c0,.89-.42,1.34-1.27,1.34H13.35a1.44,1.44,0,0,0-.93.25,1,1,0,0,0-.29.77v9.9c0,.69.32,1,1,1H27a.91.91,0,0,1,1,1v6.06q0,.9-1,.9H13c-.6,0-.9.27-.9.83v17a1.42,1.42,0,0,1-.38,1.15,2,2,0,0,1-1.28.32H2.36a1.54,1.54,0,0,1-1.09-.32,1.42,1.42,0,0,1-.32-1V129.22C1,128.41,1.29,128,2,128Z"/><path class="cls-1" d="M35.48,174.12V142.76c0-.81.34-1.22,1-1.22H44c.68,0,1,.37,1,1.09v3.77a.53.53,0,0,0,.13.38.35.35,0,0,0,.26.13c.12,0,.29-.11.51-.32a15.56,15.56,0,0,1,4.53-4.12,9.82,9.82,0,0,1,5-1.57c1.54,0,2.3.37,2.3,1.09v7.41a.94.94,0,0,1-.25.7.65.65,0,0,1-.71.13,18.41,18.41,0,0,0-4.47-.51,7.16,7.16,0,0,0-3.22.8,7.72,7.72,0,0,0-2.68,2.11,4.16,4.16,0,0,0-1.06,2.65v18.65c0,1-.55,1.47-1.66,1.47H36.82C35.92,175.4,35.48,175,35.48,174.12Z"/><path class="cls-1" d="M70.86,176a10.82,10.82,0,0,1-7.6-2.59,8.75,8.75,0,0,1-2.81-6.74,9.93,9.93,0,0,1,4.92-8.62q4.92-3.26,13.54-3.45l2.3-.19a1.1,1.1,0,0,0,.67-.22.81.81,0,0,0,.29-.67v-1.35a5,5,0,0,0-1.41-3.83,5.56,5.56,0,0,0-4-1.34,7.13,7.13,0,0,0-6.64,3.83.88.88,0,0,1-.83.64,2.52,2.52,0,0,1-.58-.06L62.3,150a.65.65,0,0,1-.57-.7,2.43,2.43,0,0,1,.25-1,10.53,10.53,0,0,1,5.47-5.56,22.65,22.65,0,0,1,9.74-1.86c5.06,0,8.73.93,11,2.78a9.65,9.65,0,0,1,3.39,7.9V174a1.78,1.78,0,0,1-.26,1.09,1.19,1.19,0,0,1-1,.32H83.77a1,1,0,0,1-.93-.45,3.37,3.37,0,0,1-.41-1.34l-.07-1.4c0-.39-.21-.58-.51-.58a2.29,2.29,0,0,0-1,.51A14.26,14.26,0,0,1,70.86,176ZM82,159.49a1,1,0,0,0-.77-.25l-1.79.13a14.89,14.89,0,0,0-6.54,1.75A4.77,4.77,0,0,0,70,165.43a3.75,3.75,0,0,0,1.34,3,5.66,5.66,0,0,0,3.71,1.12,7.46,7.46,0,0,0,5-1.73c1.41-1.11,2.11-2.23,2.11-3.38v-4.16A1.39,1.39,0,0,0,82,159.49Z"/><path class="cls-1" d="M123.82,143.75a13.76,13.76,0,0,1,5,6.86,3.7,3.7,0,0,1,.13.64c0,.39-.3.62-.9.7l-6.7.64h-.2c-.38,0-.63-.23-.76-.7a12.44,12.44,0,0,0-2.33-3.41,4.69,4.69,0,0,0-3.36-1.12,6.21,6.21,0,0,0-5.39,2.81q-1.95,2.81-1.95,8.3t2.07,8.43a6.78,6.78,0,0,0,5.79,2.81,6.59,6.59,0,0,0,4.27-1.34,14.56,14.56,0,0,0,3.26-4.09.68.68,0,0,1,.42-.35,2.76,2.76,0,0,1,.67,0l4.72,1.09a.58.58,0,0,1,.58.64l-.13.58a15.26,15.26,0,0,1-5,6.73q-3.67,3-9.68,3a17.4,17.4,0,0,1-8.78-2.21,15.56,15.56,0,0,1-6-6.16,18.63,18.63,0,0,1-2.17-9.07,18.83,18.83,0,0,1,2.21-9.2,15.94,15.94,0,0,1,6.06-6.26,17.13,17.13,0,0,1,8.72-2.24A15.17,15.17,0,0,1,123.82,143.75Z"/><path class="cls-1" d="M134.51,175.11a1.29,1.29,0,0,1-.32-1v-44.9c0-.81.34-1.22,1-1.22h7.67c.64,0,1,.37,1,1.09v16.35c0,.34.1.51.32.51a.69.69,0,0,0,.44-.25,21.12,21.12,0,0,1,5.46-3.71,13.46,13.46,0,0,1,5.34-1.09c3.23,0,5.73.9,7.47,2.69s2.62,4.3,2.62,7.54v22.73A1.36,1.36,0,0,1,164,175.4h-7.09a1.26,1.26,0,0,1-1-.29,1.49,1.49,0,0,1-.26-1V152.53a4.5,4.5,0,0,0-1.18-3.35,4.62,4.62,0,0,0-3.42-1.19,6.78,6.78,0,0,0-3.57,1,15.48,15.48,0,0,0-3.45,3v22a1.45,1.45,0,0,1-.38,1.11,1.86,1.86,0,0,1-1.28.36h-6.84A1.5,1.5,0,0,1,134.51,175.11Z"/><path class="cls-1" d="M186.5,148.32c-.46,0-.7.25-.7.76v15.4a4,4,0,0,0,1,3.1,4.83,4.83,0,0,0,3.26.92h3.45a.86.86,0,0,1,.7.29,1.15,1.15,0,0,1,.26.8l-.06,3.89A1.46,1.46,0,0,1,193,175a56.3,56.3,0,0,1-7.6.39,10.43,10.43,0,0,1-7-2.11,7.59,7.59,0,0,1-2.49-6.13V149.27c0-.64-.28-1-.83-1h-3.9c-.81,0-1.21-.37-1.21-1.09V142.5c0-.63.38-1,1.15-1h4.4c.34,0,.55-.23.64-.7l.89-9.71q.13-1.08,1-1.08h7a.92.92,0,0,1,.73.32,1.29,1.29,0,0,1,.29.89v9.58a.56.56,0,0,0,.64.64h6.7c.77,0,1.15.34,1.15,1v4.73c0,.72-.42,1.09-1.27,1.09Z"/><path class="cls-2" d="M248.43,141.83a1,1,0,0,1,.29.67,1.82,1.82,0,0,1-.13.51l-10.41,31.36a1.66,1.66,0,0,1-.48.8,1.32,1.32,0,0,1-.86.23H231.6a1.76,1.76,0,0,1-1.08-.29,1.73,1.73,0,0,1-.58-.92l-5.49-17.57q-.19-.57-.51-.57t-.39.57l-5.62,17.75a1.32,1.32,0,0,1-.41.8,1.45,1.45,0,0,1-.93.23h-5.43a1.62,1.62,0,0,1-1-.29,1.75,1.75,0,0,1-.54-.92l-10.29-31.11a1.21,1.21,0,0,1-.06-.45,1.08,1.08,0,0,1,.28-.76,1,1,0,0,1,.8-.33h7.48a1.53,1.53,0,0,1,.86.29,1.32,1.32,0,0,1,.54.8l5.69,18.08c.12.38.27.57.44.57s.32-.21.45-.64l5.49-18.07a1.37,1.37,0,0,1,.55-.74,1.48,1.48,0,0,1,.86-.29H228a1.35,1.35,0,0,1,.9.33,1.19,1.19,0,0,1,.45.76l5.55,18.08q.2.57.45.57c.21,0,.38-.21.51-.64l5.5-18.07a1.51,1.51,0,0,1,1.46-1h4.86A1,1,0,0,1,248.43,141.83Z"/><path class="cls-2" d="M263.12,167.13a8.53,8.53,0,0,0,6,2.2,9.23,9.23,0,0,0,4.25-1,13.41,13.41,0,0,0,3.93-3.29.74.74,0,0,1,.51-.26,2,2,0,0,1,.64.2l4.6,1.91a.65.65,0,0,1,.44.64,1,1,0,0,1-.25.64,18.39,18.39,0,0,1-6.58,6.1,19.48,19.48,0,0,1-8.75,1.76,18,18,0,0,1-8.88-2.18,15.68,15.68,0,0,1-6.19-6,17.28,17.28,0,0,1-2.24-8.85,19.17,19.17,0,0,1,2.3-9.48,16.22,16.22,0,0,1,6.23-6.36,18,18,0,0,1,17.21-.09,14.76,14.76,0,0,1,5.88,6.16,20.43,20.43,0,0,1,2.11,9.58,2.94,2.94,0,0,1-.16,1.15c-.11.21-.42.34-.93.38H261.49c-.51,0-.76.35-.76,1A7.51,7.51,0,0,0,263.12,167.13ZM273.56,155a1.58,1.58,0,0,0,.9-.16c.13-.11.19-.35.19-.73a7.78,7.78,0,0,0-.77-3.33,7.1,7.1,0,0,0-2.23-2.75,5.87,5.87,0,0,0-3.58-1.08,6.8,6.8,0,0,0-5.24,2.24,7.91,7.91,0,0,0-2,5.75Z"/><path class="cls-2" d="M290.27,174.12V142.76c0-.81.34-1.22,1-1.22h7.48c.68,0,1,.37,1,1.09v3.77a.49.49,0,0,0,.13.38.34.34,0,0,0,.25.13c.13,0,.3-.11.51-.32a15.72,15.72,0,0,1,4.54-4.12,9.77,9.77,0,0,1,5-1.57c1.53,0,2.3.37,2.3,1.09v7.41a.94.94,0,0,1-.26.7.64.64,0,0,1-.7.13,18.41,18.41,0,0,0-4.47-.51,7.2,7.2,0,0,0-3.23.8,7.81,7.81,0,0,0-2.68,2.11,4.2,4.2,0,0,0-1.05,2.65v18.65c0,1-.56,1.47-1.66,1.47h-6.84C290.72,175.4,290.27,175,290.27,174.12Z"/><path class="cls-2" d="M351.33,174.5a.79.79,0,0,1-.29.64,1.09,1.09,0,0,1-.79.26h-8.37a2,2,0,0,1-1.73-1.34l-6.58-13.16c-.17-.38-.36-.58-.57-.58s-.3.11-.51.32L328,165.12a1.89,1.89,0,0,0-.57,1.59v7.15A1.55,1.55,0,0,1,327,175a1.86,1.86,0,0,1-1.28.36H319a1.53,1.53,0,0,1-1.09-.32,1.42,1.42,0,0,1-.32-1V129.22c0-.81.34-1.22,1-1.22h7.86c.64,0,1,.39,1,1.15v26.19c0,.34.08.51.25.51a.69.69,0,0,0,.52-.32l12-13a2.7,2.7,0,0,1,1.73-1h6.83c.73,0,1.09.24,1.09.71a1.28,1.28,0,0,1-.45.89l-8.94,9.07a1.31,1.31,0,0,0-.38.83,2.15,2.15,0,0,0,.25,1l10.92,19.93A1,1,0,0,1,351.33,174.5Z"/></g><g id="box"><polygon class="cls-2" points="13.07 32.2 42.61 49.21 42.61 83.31 13.07 66.29 13.07 32.2"/><polygon class="cls-3" points="13.07 32.2 42.61 15.15 72.13 32.18 42.61 49.21 13.07 32.2"/><polygon class="cls-2" points="42.61 83.31 42.61 49.21 72.13 32.18 72.13 66.23 42.61 83.31"/><polygon class="cls-4" points="24.22 54.44 24.22 38.62 53.97 21.7 59.88 25.11 30.64 42.32 30.52 58.15 24.22 54.44"/></g><path id="cloud" class="cls-1" d="M322.36,24a41.08,41.08,0,0,0-70.79-6.55,32.14,32.14,0,0,0-6.85-.73A33.07,33.07,0,0,0,212.3,43.5a25.69,25.69,0,0,0-16,23.53l-30.72,13.8A28.05,28.05,0,0,0,113.78,79L85.23,65.46V24.6L42.61,0,0,24.6V73.81l42.61,24.6L79.37,77.19l31.9,15a28.06,28.06,0,0,0,55.82,2.31l32.53-14.59A25.65,25.65,0,0,0,222,92.93h94.94A34.66,34.66,0,0,0,322.36,24ZM72.14,66.25l-29.53,17-29.52-17V32.16l29.52-17,29.53,17Zm67.15,39.35a15,15,0,1,1,15-15A15,15,0,0,1,139.29,105.6Zm177.6-25.76H222a12.56,12.56,0,0,1-.11-25.11H222a2.87,2.87,0,0,0,2.05-.85,2.83,2.83,0,0,0,.79-2.25c-.05-.61-.09-1.23-.09-1.86a19.91,19.91,0,0,1,30.09-17.13,2.81,2.81,0,0,0,1.45.4,2.92,2.92,0,0,0,.93-.15A2.89,2.89,0,0,0,259,31.24a28,28,0,0,1,53.29,3.39,3,3,0,0,0,3,2.15h.16c.5,0,1-.07,1.52-.07a21.57,21.57,0,0,1,0,43.14Z"/></g></g></svg>