<?xml version="1.0" encoding="UTF-8" standalone="no"?>
<!-- Created with Inkscape (http://www.inkscape.org/) -->

<svg
   version="1.1"
   id="svg2"
   width="360.96799"
   height="109.01693"
   viewBox="0 0 360.96799 109.01693"
   sodipodi:docname="FF_ILUSTREETS_LO-01.ai"
   xmlns:inkscape="http://www.inkscape.org/namespaces/inkscape"
   xmlns:sodipodi="http://sodipodi.sourceforge.net/DTD/sodipodi-0.dtd"
   xmlns="http://www.w3.org/2000/svg"
   xmlns:svg="http://www.w3.org/2000/svg">
  <defs
     id="defs6">
    <clipPath
       clipPathUnits="userSpaceOnUse"
       id="clipPath16">
      <path
         d="M 0,81.763 H 270.726 V 0 H 0 Z"
         id="path14" />
    </clipPath>
  </defs>
  <sodipodi:namedview
     id="namedview4"
     pagecolor="#ffffff"
     bordercolor="#000000"
     borderopacity="0.25"
     inkscape:showpageshadow="2"
     inkscape:pageopacity="0.0"
     inkscape:pagecheckerboard="0"
     inkscape:deskcolor="#d1d1d1" />
  <g
     id="g8"
     inkscape:groupmode="layer"
     inkscape:label="FF_ILUSTREETS_LO-01"
     transform="matrix(1.3333333,0,0,-1.3333333,0,109.01693)">
    <g
       id="g10">
      <g
         id="g12"
         clip-path="url(#clipPath16)">
        <g
           id="g18"
           transform="translate(105.1558,44.1943)">
          <path
             d="m 0,0 c -0.368,0 -0.755,0.046 -1.167,0.138 -0.412,0.09 -0.892,0.227 -1.441,0.411 -4.756,1.007 -7.134,2.242 -7.134,3.706 0,1.097 0.409,1.92 1.235,2.47 0.913,0.547 2.286,0.822 4.116,0.822 1.921,0 3.43,-0.41 4.527,-1.235 C 0.501,5.946 0.867,5.579 1.232,5.215 2.148,3.659 3.475,2.881 5.211,2.881 h 5.9 c -0.182,3.657 -1.599,6.634 -4.253,8.92 -2.836,2.104 -6.63,3.155 -11.386,3.155 -4.393,0 -7.958,-1.051 -10.702,-3.155 -2.654,-2.286 -3.979,-5.168 -3.979,-8.643 0,-2.745 0.913,-4.941 2.742,-6.587 1.649,-1.646 4.896,-3.066 9.744,-4.253 0.821,-0.275 2.056,-0.549 3.703,-0.823 3.841,-0.824 5.761,-2.058 5.761,-3.705 0,-1.097 -0.547,-1.968 -1.644,-2.607 -1.189,-0.64 -2.606,-0.96 -4.252,-0.96 -2.289,0 -4.12,0.457 -5.491,1.373 -1.28,0.913 -1.963,2.284 -2.058,4.114 h -9.328 v -0.41 c 0,-4.027 1.327,-7.09 3.979,-9.192 2.559,-2.107 6.449,-3.156 11.662,-3.156 5.488,0 9.602,1.006 12.346,3.018 2.928,2.194 4.391,5.303 4.391,9.33 0,2.743 -0.867,4.939 -2.606,6.585 C 7.912,-2.56 4.664,-1.187 0,0"
             style="fill:#231f20;fill-opacity:1;fill-rule:nonzero;stroke:none"
             id="path20" />
        </g>
        <g
           id="g22"
           transform="translate(194.4238,43.7837)">
          <path
             d="m 0,0 c 0.092,2.378 0.774,4.205 2.056,5.487 1.281,1.282 2.927,1.922 4.94,1.922 2.196,0 3.89,-0.64 5.076,-1.922 1.1,-1.189 1.739,-3.018 1.923,-5.487 z m -15.69,-10.702 c -1.1,0 -1.945,-0.228 -2.54,-0.686 -0.594,-0.459 -0.938,-0.823 -1.027,-1.097 -0.276,-0.274 -0.528,-0.528 -0.756,-0.754 -0.227,-0.229 -0.479,-0.391 -0.753,-0.481 -1.097,-0.639 -2.424,-0.96 -3.981,-0.96 -2.376,0 -4.16,0.731 -5.35,2.195 -1.281,1.371 -1.966,3.475 -2.058,6.311 h 22.532 c 0.13,-1.627 0.385,-3.133 0.754,-4.528 z M -30.097,5.487 c 1.282,1.282 2.928,1.922 4.938,1.922 2.196,0 3.889,-0.64 5.078,-1.922 1.098,-1.189 1.736,-3.018 1.921,-5.487 h -13.995 c 0.092,2.378 0.777,4.205 2.058,5.487 m 36.82,9.88 c -5.214,0 -9.286,-1.696 -12.213,-5.077 -1.687,-1.96 -2.86,-4.385 -3.543,-7.252 -0.707,2.92 -1.91,5.392 -3.637,7.39 -3.02,3.292 -7.275,4.939 -12.763,4.939 -5.213,0 -9.284,-1.696 -12.21,-5.077 -1.296,-1.506 -2.283,-3.294 -2.986,-5.336 v 9.589 h -0.684 -0.686 c -2.471,0 -4.873,-0.322 -7.202,-0.961 -2.335,-0.64 -4.369,-1.645 -6.108,-3.018 -1.828,-1.463 -3.269,-3.409 -4.323,-5.831 -1.051,-2.423 -1.576,-5.42 -1.576,-8.987 v -10.563 h -2.301 c -1.831,0 -2.743,0.775 -2.743,2.332 V 7.821 h 0.961 c 1.281,0 2.376,0.432 3.291,1.303 0.915,0.869 1.373,1.99 1.373,3.361 v 1.92 h -5.625 v 6.176 c 0,1.278 -0.458,2.377 -1.373,3.292 -0.914,0.913 -1.967,1.372 -3.156,1.372 h -4.94 v -40.337 c 0,-4.208 1.763,-6.449 5.284,-6.724 3.521,-0.273 6.792,-0.319 9.81,-0.135 h 9.023 v 18.797 c 0,2.742 0.64,4.754 1.92,6.034 1.282,1.282 3.248,1.922 5.898,1.922 h 3.102 c -0.799,-2.386 -1.212,-5.123 -1.212,-8.231 0,-6.13 1.463,-10.84 4.391,-14.132 2.928,-3.385 6.996,-5.077 12.21,-5.077 4.302,0 7.866,1.05 10.702,3.157 2.819,1.996 4.73,4.902 5.742,8.709 0.724,-2.692 1.878,-4.966 3.497,-6.789 2.93,-3.385 6.999,-5.077 12.212,-5.077 4.298,0 7.866,1.05 10.702,3.157 2.836,2.008 4.758,4.938 5.763,8.779 h -6.86 c -1.098,0 -1.945,-0.228 -2.538,-0.686 -0.594,-0.459 -0.938,-0.823 -1.029,-1.097 -0.274,-0.274 -0.526,-0.528 -0.753,-0.754 -0.231,-0.229 -0.483,-0.391 -0.756,-0.481 -1.1,-0.639 -2.424,-0.96 -3.979,-0.96 -2.378,0 -4.163,0.731 -5.352,2.195 C 0.774,-11.114 0.092,-9.01 0,-6.174 h 23.734 c 0.09,0.184 0.136,0.503 0.136,0.96 v 0.55 0.96 c 0,6.037 -1.462,10.747 -4.391,14.132 -3.016,3.292 -7.269,4.939 -12.756,4.939"
             style="fill:#231f20;fill-opacity:1;fill-rule:nonzero;stroke:none"
             id="path24" />
        </g>
        <g
           id="g26"
           transform="translate(262.7861,40.0796)">
          <path
             d="m 0,0 c -1.828,1.555 -5.076,2.928 -9.739,4.115 -0.367,0 -0.756,0.046 -1.166,0.137 -0.412,0.09 -0.893,0.228 -1.442,0.412 -4.756,1.006 -7.135,2.241 -7.135,3.706 0,1.096 0.411,1.92 1.235,2.469 0.914,0.548 2.287,0.823 4.116,0.823 1.921,0 3.429,-0.411 4.527,-1.235 0.367,-0.366 0.733,-0.733 1.098,-1.097 0.916,-1.556 2.241,-2.334 3.979,-2.334 h 5.901 c -0.184,3.657 -1.602,6.633 -4.255,8.92 -2.835,2.104 -6.631,3.155 -11.387,3.155 -4.392,0 -7.959,-1.051 -10.702,-3.155 -2.652,-2.287 -3.978,-5.168 -3.978,-8.644 0,-2.745 0.915,-4.94 2.745,-6.586 1.645,-1.646 4.891,-3.066 9.74,-4.253 0.821,-0.275 2.058,-0.55 3.705,-0.824 3.842,-0.823 5.761,-2.058 5.761,-3.705 0,-1.096 -0.549,-1.967 -1.647,-2.607 -1.188,-0.639 -2.605,-0.96 -4.251,-0.96 -2.289,0 -4.117,0.458 -5.489,1.373 -1.281,0.914 -1.968,2.285 -2.058,4.115 h -9.329 v -0.41 c 0,-1.681 0.246,-3.183 0.708,-4.528 h -1.11 c -1.828,0 -2.742,0.775 -2.742,2.332 v 20.306 h 0.959 c 1.281,0 2.379,0.432 3.294,1.303 0.914,0.869 1.373,1.99 1.373,3.361 v 1.92 h -5.626 v 6.176 c 0,1.278 -0.459,2.378 -1.372,3.292 -0.915,0.913 -1.969,1.372 -3.155,1.372 h -4.941 v -40.337 c 0,-4.208 1.762,-6.449 5.282,-6.724 2.109,-0.163 10.241,-0.245 17.08,-0.246 1.731,-0.376 3.685,-0.576 5.89,-0.576 5.487,0 9.604,1.006 12.348,3.019 2.929,2.194 4.39,5.303 4.39,9.33 C 2.607,-3.842 1.738,-1.646 0,0"
             style="fill:#231f20;fill-opacity:1;fill-rule:nonzero;stroke:none"
             id="path28" />
        </g>
        <path
           d="m 33.3,49.977 h -3.554 v 3.555 H 33.3 Z m 0,-7.836 h -3.554 v 3.554 H 33.3 Z M 31.66,71.509 H 26.721 V 21.833 h 9.605 v 45.149 c 0,1.281 -0.458,2.354 -1.372,3.225 -0.914,0.868 -2.014,1.302 -3.294,1.302"
           style="fill:#231f20;fill-opacity:1;fill-rule:nonzero;stroke:none"
           id="path30" />
        <path
           d="m 44.82,49.977 h -3.553 v 5.749 h 3.553 z m 0,-7.836 h -3.553 v 3.554 h 3.553 z m 0,-8.994 h -3.553 v 3.554 H 44.82 Z M 43.17,68.485 H 38.547 V 21.833 h 8.992 v 42.415 c 0,1.199 -0.429,2.201 -1.288,3.016 -0.857,0.813 -1.882,1.221 -3.081,1.221"
           style="fill:#231f20;fill-opacity:1;fill-rule:nonzero;stroke:none"
           id="path32" />
        <path
           d="m 57.89,49.977 h -3.555 v 3.555 h 3.555 z m 0,-7.836 h -3.555 v 3.554 H 57.89 Z M 74.868,56.957 C 73.999,56.041 73.567,54.941 73.567,53.663 V 35.002 c 0,-2.194 -0.663,-3.795 -1.99,-4.8 -1.325,-1.008 -2.814,-1.51 -4.461,-1.51 -1.644,0 -3.107,0.502 -4.388,1.51 -1.281,1.005 -1.92,2.606 -1.92,4.8 V 58.327 H 51.203 V 36.924 c 0,-6.312 1.623,-10.475 4.868,-12.486 3.25,-2.012 6.839,-3.107 10.771,-3.292 4.025,0 7.73,1.006 11.116,3.019 3.383,2.009 5.073,6.262 5.073,12.759 v 21.403 h -4.802 c -1.371,0 -2.492,-0.459 -3.361,-1.37"
           style="fill:#231f20;fill-opacity:1;fill-rule:nonzero;stroke:none"
           id="path34" />
        <path
           d="m 20.14,40.705 h -3.554 v 3.555 h 3.554 z m 0,-7.837 h -3.554 v 3.554 h 3.554 z m -8.019,4.115 H 8.566 v 3.554 h 3.555 z m 0,-7.837 H 8.566 v 3.555 h 3.555 z m 9.869,18.538 c -0.915,0.912 -2.014,1.37 -3.296,1.37 h -4.937 v -4.916 c -0.872,0.784 -1.895,1.195 -3.082,1.195 H 5.737 V 22.484 h 8.02 1.585 8.019 V 44.39 c 0,1.279 -0.458,2.379 -1.371,3.294"
           style="fill:#231f20;fill-opacity:1;fill-rule:nonzero;stroke:none"
           id="path36" />
        <g
           id="g38"
           transform="translate(13.7388,63.4307)">
          <path
             d="m 0,0 c -1.33,0 -2.406,1.045 -2.406,2.331 0,1.286 1.076,2.327 2.406,2.327 1.331,0 2.406,-1.041 2.406,-2.327 C 2.406,1.045 1.331,0 0,0 m 0,9.497 c -4.154,0 -7.52,-3.311 -7.52,-7.393 0,-1.657 0.6,-3.245 1.605,-4.558 2.585,-3.376 5.936,-11.85 6.229,-13.121 -0.037,0.158 0.106,0.475 0.145,0.622 0.151,0.58 3.339,9.075 5.788,12.942 0.783,1.238 1.274,2.652 1.274,4.115 0,4.082 -3.367,7.393 -7.521,7.393"
             style="fill:#eb5123;fill-opacity:1;fill-rule:nonzero;stroke:none"
             id="path40" />
        </g>
      </g>
    </g>
  </g>
</svg>
