<svg xmlns="http://www.w3.org/2000/svg" id="Ebene_1" data-name="Ebene 1" viewBox="0 0 371.7 243.6"><defs><style>      .cls-1 {        isolation: isolate;      }      .cls-2 {        fill: #222e83;      }      .cls-3 {        fill: #333;      }      .cls-4 {        fill: #008238;      }    </style></defs><g id="global"><g id="its-Ebene_3" data-name="its-Ebene 3"><path class="cls-2" d="M10,111.4C12.5,65.7,39.5,26.6,78,6.8V57.4c-14.7,13.8-24.4,32.8-26.2,54H10Zm41.8,13.9c3.5,42.9,39.5,76.6,83.2,76.6,24.1,0,45.8-10.2,61-26.5h50.6c-20.8,40.5-62.9,68.2-111.6,68.2-66.9,0-121.5-52.4-125.1-118.3H51.8Z"></path></g><g id="its-Ebene_5" data-name="its-Ebene 5"><path class="cls-4" d="M99.5,111.4h-33.7c3.3-32.9,29.4-59,62.3-62.3v33.7c-14.4,2.8-25.8,14.2-28.6,28.6h0Zm0,13.9c2.8,14.4,14.2,25.8,28.6,28.6v33.7c-32.9-3.3-59-29.4-62.3-62.3h33.7Zm71.1,0h33.7c-3.3,32.9-29.4,59-62.3,62.3v-33.7c14.4-2.8,25.8-14.2,28.6-28.6h0Z"></path></g></g><g id="its-Ebene_7" data-name="its-Ebene 7"><rect class="cls-3" y="116.7" width="128.1" height="3.3"></rect><rect class="cls-3" x="133.4" width="3.3" height="111.4"></rect><rect class="cls-3" x="133.4" y="125.3" width="3.3" height="50.1"></rect></g><rect id="line_long" data-name="line long" class="cls-3" x="142" y="116.7" width="229.7" height="3.3"></rect><g class="cls-1"><path class="cls-3" d="M241.9,146.9c0,2.7-.3,5.1-1,7.2s-1.7,3.7-3.1,5.1c-1.3,1.3-3,2.3-4.9,3s-4.3,1-7,1h-6.7c-.4,0-.7-.1-1.1-.4-.3-.3-.5-.7-.5-1.3v-28.2c0-.6,.2-1.1,.5-1.3,.3-.3,.7-.4,1.1-.4h7.2c2.7,0,5,.4,6.9,1.1,1.9,.7,3.5,1.7,4.7,3.1,1.3,1.3,2.2,2.9,2.9,4.8,.6,1.8,1,4,1,6.3Zm-4.4,.2c0-1.7-.2-3.3-.6-4.8s-1.1-2.7-2-3.8-2-1.9-3.4-2.5-3.2-.9-5.3-.9h-4.3v24.6h4.3c2,0,3.7-.3,5.1-.8s2.5-1.3,3.5-2.3c.9-1,1.6-2.3,2.1-3.9,.3-1.6,.6-3.4,.6-5.6Z"></path><path class="cls-3" d="M252.4,133.2c0,.9-.2,1.6-.5,1.9-.4,.3-1,.5-2,.5-.9,0-1.6-.2-1.9-.5-.4-.3-.5-1-.5-1.9s.2-1.6,.5-1.9c.4-.3,1-.5,2-.5,.9,0,1.6,.2,1.9,.5s.5,1,.5,1.9Zm-.5,29.4c0,.1,0,.2-.1,.3s-.2,.2-.3,.2-.3,.1-.6,.1h-2c-.3,0-.5-.1-.6-.1s-.3-.1-.3-.2c-.1-.1-.1-.2-.1-.3v-22c0-.1,0-.2,.1-.3s.2-.2,.3-.2c.2-.1,.4-.1,.6-.1h2c.3,0,.5,.1,.6,.1,.1,.1,.3,.1,.3,.2s.1,.2,.1,.3v22Z"></path><path class="cls-3" d="M277.7,141.6c0,.6-.1,1-.2,1.2-.2,.3-.4,.4-.6,.4h-3.1c.6,.6,1,1.2,1.2,1.9s.3,1.4,.3,2.2c0,1.3-.2,2.4-.6,3.4s-1,1.8-1.7,2.5c-.8,.7-1.7,1.2-2.7,1.6s-2.2,.5-3.5,.5c-.9,0-1.7-.1-2.6-.4-.8-.2-1.4-.5-1.9-.9-.3,.3-.5,.6-.7,1s-.3,.8-.3,1.3c0,.6,.3,1,.8,1.4s1.2,.6,2.1,.6l5.7,.2c1.1,0,2.1,.2,3,.5s1.7,.7,2.4,1.1c.7,.5,1.2,1.1,1.6,1.8s.6,1.6,.6,2.5c0,1-.2,2-.6,2.9s-1.1,1.7-1.9,2.4-2,1.2-3.3,1.6c-1.4,.4-2.9,.6-4.8,.6-1.8,0-3.3-.2-4.5-.5s-2.3-.7-3.1-1.2-1.4-1.1-1.7-1.9c-.4-.7-.5-1.5-.5-2.4,0-.5,.1-1.1,.2-1.6s.3-1,.6-1.4c.3-.5,.6-.9,1-1.3,.4-.4,.9-.8,1.4-1.2-.8-.4-1.4-.9-1.8-1.5s-.6-1.3-.6-2c0-1,.2-1.9,.6-2.7s.9-1.5,1.5-2.1c-.5-.6-.9-1.3-1.2-2-.3-.8-.4-1.7-.4-2.7,0-1.3,.2-2.4,.6-3.4s1-1.8,1.8-2.5c.7-.7,1.6-1.2,2.7-1.6,1.1-.4,2.2-.5,3.4-.5,.7,0,1.3,0,1.9,.1s1.1,.2,1.6,.3h6.6c.3,0,.5,.1,.6,.4,0,.5,.1,.9,.1,1.4Zm-4.3,23.2c0-.9-.4-1.7-1.2-2.2-.8-.5-1.8-.8-3.1-.8l-5.7-.2c-.5,.4-.9,.8-1.3,1.2-.3,.4-.6,.7-.8,1.1s-.3,.7-.4,1c-.1,.3-.1,.7-.1,1,0,1.1,.5,1.9,1.6,2.4s2.6,.8,4.5,.8c1.2,0,2.2-.1,3.1-.4,.8-.2,1.5-.5,2-.9s.9-.8,1.1-1.3c.2-.6,.3-1.1,.3-1.7Zm-2-17.4c0-1.5-.4-2.7-1.2-3.5-.8-.8-2-1.3-3.5-1.3-.8,0-1.5,.1-2,.4-.6,.3-1.1,.6-1.4,1.1-.4,.5-.7,1-.9,1.6-.2,.6-.3,1.2-.3,1.9,0,1.4,.4,2.6,1.2,3.4,.8,.8,2,1.2,3.5,1.2,.8,0,1.5-.1,2.1-.4,.6-.3,1.1-.6,1.5-1s.7-1,.9-1.6,.1-1.2,.1-1.8Z"></path><path class="cls-3" d="M287.4,133.2c0,.9-.2,1.6-.5,1.9-.4,.3-1,.5-2,.5-.9,0-1.6-.2-1.9-.5-.4-.3-.5-1-.5-1.9s.2-1.6,.5-1.9c.4-.3,1-.5,2-.5,.9,0,1.6,.2,1.9,.5s.5,1,.5,1.9Zm-.5,29.4c0,.1,0,.2-.1,.3s-.2,.2-.3,.2-.3,.1-.6,.1h-2c-.3,0-.5-.1-.6-.1s-.3-.1-.3-.2c-.1-.1-.1-.2-.1-.3v-22c0-.1,0-.2,.1-.3s.2-.2,.3-.2c.2-.1,.4-.1,.6-.1h2c.3,0,.5,.1,.6,.1,.1,.1,.3,.1,.3,.2s.1,.2,.1,.3v22Z"></path><path class="cls-3" d="M305.8,161c0,.5,0,.8-.1,1.1s-.2,.5-.3,.6c-.1,.1-.3,.3-.6,.4l-.9,.3c-.3,.1-.7,.1-1.1,.2-.4,0-.7,.1-1.1,.1-1.1,0-2.1-.2-2.9-.5s-1.5-.8-2-1.4c-.5-.6-.9-1.4-1.1-2.3-.2-.9-.4-2-.4-3.3v-12.8h-3.1c-.2,0-.4-.1-.6-.4-.1-.3-.2-.7-.2-1.3,0-.3,0-.6,.1-.8,0-.2,.1-.4,.2-.5l.3-.3c.1-.1,.2-.1,.4-.1h3.1v-5.2c0-.1,0-.2,.1-.3l.3-.3c.2-.1,.4-.1,.6-.2s.6,0,1,0h1c.3,0,.5,.1,.6,.2,.1,.1,.3,.2,.3,.3,.1,.1,.1,.2,.1,.3v5.2h5.6c.1,0,.2,0,.3,.1l.3,.3c.1,.1,.1,.3,.2,.5v.8c0,.6-.1,1-.2,1.3s-.3,.4-.6,.4h-5.6v12.3c0,1.5,.2,2.7,.7,3.4,.4,.8,1.2,1.2,2.4,1.2,.4,0,.7,0,1-.1s.6-.2,.8-.2c.2-.1,.4-.2,.6-.2,.2-.1,.3-.1,.4-.1s.2,0,.2,.1c.1,0,.1,.1,.2,.2,0,.1,.1,.3,.1,.5-.1-.1-.1,.2-.1,.5Z"></path><path class="cls-3" d="M327.1,162.6c0,.2-.1,.3-.2,.4s-.3,.2-.5,.2-.6,.1-1,.1-.8,0-1-.1-.4-.1-.5-.2c-.1-.1-.2-.2-.2-.4v-2.2c-1,1-2,1.8-3.2,2.4-1.2,.6-2.4,.9-3.7,.9-1.2,0-2.2-.2-3.1-.5s-1.7-.7-2.4-1.3c-.7-.6-1.2-1.3-1.5-2.1-.4-.8-.5-1.8-.5-2.8,0-1.2,.3-2.3,.8-3.2s1.2-1.7,2.2-2.3c.9-.6,2.1-1.1,3.5-1.4,1.4-.3,2.9-.5,4.6-.5h3v-1.7c0-.8-.1-1.6-.3-2.2-.2-.7-.5-1.2-.9-1.6s-.9-.8-1.5-1-1.4-.3-2.3-.3c-1,0-1.9,.1-2.7,.4-.8,.2-1.5,.5-2.1,.8s-1.1,.5-1.5,.8c-.4,.2-.7,.4-.9,.4-.1,0-.2,0-.3-.1l-.3-.3c-.1-.1-.1-.3-.2-.5v-.7c0-.4,0-.7,.1-1,.1-.2,.2-.5,.4-.7,.2-.2,.6-.5,1.1-.7s1.2-.5,1.9-.8,1.5-.4,2.3-.6,1.7-.2,2.5-.2c1.6,0,2.9,.2,4,.5,1.1,.4,2,.9,2.7,1.6,.7,.7,1.2,1.6,1.5,2.6s.5,2.2,.5,3.6v14.7h-.3Zm-4-10h-3.4c-1.1,0-2.1,.1-2.9,.3s-1.5,.5-2,.8c-.5,.4-.9,.8-1.2,1.3-.3,.5-.4,1.1-.4,1.8,0,1.1,.4,2,1.1,2.7s1.7,1,3,1c1.1,0,2-.3,2.9-.8s1.9-1.4,2.8-2.5v-4.6h.1Z"></path><path class="cls-3" d="M338.5,162.6c0,.1,0,.2-.1,.3s-.2,.2-.3,.2-.3,.1-.6,.1h-2c-.3,0-.5-.1-.6-.1s-.3-.1-.3-.2c-.1-.1-.1-.2-.1-.3v-32.6c0-.1,0-.2,.1-.3s.2-.2,.3-.2,.4-.1,.6-.1h2c.3,0,.5,.1,.6,.1s.3,.1,.3,.2,.1,.2,.1,.3v32.6Z"></path></g><g id="its-Ebene_4" data-name="its-Ebene 4"><path class="cls-3" d="M171.8,95.4c-.2,.3-.7,.6-1.2,.7-.6,.2-1.3,.3-2.3,.5-1,.1-2.2,.2-3.7,.2-1.4,0-2.7-.1-3.6-.2s-1.7-.3-2.3-.5-1-.4-1.2-.7-.4-.6-.4-1V24.6c0-.4,.1-.7,.4-1,.2-.3,.7-.6,1.3-.7,.6-.2,1.4-.3,2.3-.5,.9-.1,2.1-.2,3.6-.2s2.7,.1,3.7,.2c.9,.1,1.7,.3,2.3,.5s1,.4,1.2,.7,.4,.6,.4,1V94.4c-.2,.4-.3,.7-.5,1h0ZM237.3,31.5c-.1,.8-.2,1.4-.4,1.9-.2,.5-.4,.8-.7,1.1-.3,.2-.6,.3-.9,.3h-18.5v59.6c0,.4-.1,.7-.4,1-.2,.3-.7,.6-1.2,.7-.6,.2-1.3,.3-2.3,.5-1,.1-2.2,.2-3.6,.2s-2.7-.1-3.6-.2c-1-.1-1.7-.3-2.3-.5s-1-.4-1.2-.7-.4-.6-.4-1V34.8h-18.5c-.4,0-.7-.1-1-.3-.3-.2-.5-.6-.7-1.1s-.3-1.1-.4-1.9c-.1-.8-.1-1.7-.1-2.8s0-2.1,.1-2.9,.2-1.4,.4-1.9,.4-.8,.7-1,.6-.3,1-.3h52.1c.3,0,.7,.1,.9,.3,.3,.2,.5,.6,.7,1,.2,.5,.3,1.1,.4,1.9s.1,1.8,.1,2.9c-.1,1.1-.1,2.1-.2,2.8h0Zm25.8,16.8c1.5,.9,3.2,1.8,5.1,2.6s3.8,1.7,5.8,2.6c2,.9,3.9,2,5.8,3.1,1.9,1.2,3.6,2.5,5.1,4.2s2.7,3.5,3.6,5.7,1.4,4.8,1.4,7.7c0,3.9-.7,7.3-2.2,10.2-1.4,2.9-3.4,5.4-5.9,7.3s-5.4,3.4-8.7,4.4c-3.3,1-6.9,1.5-10.6,1.5-2.6,0-4.9-.2-7.1-.6-2.2-.4-4.1-.9-5.8-1.5-1.7-.6-3.1-1.2-4.2-1.9s-1.9-1.2-2.4-1.7-.8-1.2-1.1-2.1c-.2-.9-.3-2.3-.3-4,0-1.2,0-2.2,.1-3s.2-1.4,.4-1.9,.4-.8,.7-1.1c.3-.2,.6-.3,1-.3,.5,0,1.3,.3,2.3,.9,1,.6,2.2,1.3,3.7,2.1s3.3,1.5,5.5,2.1c2.1,.6,4.6,.9,7.3,.9,1.8,0,3.5-.2,4.9-.7,1.4-.4,2.7-1.1,3.7-1.9,1-.8,1.8-1.8,2.3-3s.8-2.5,.8-3.9c0-1.7-.5-3.1-1.4-4.3s-2.1-2.3-3.6-3.2-3.1-1.8-5-2.6-3.8-1.7-5.8-2.6c-2-.9-3.9-1.9-5.8-3.1-1.9-1.2-3.5-2.5-5-4.2s-2.7-3.5-3.6-5.7-1.4-4.9-1.4-7.9c0-3.5,.7-6.7,2-9.3,1.3-2.7,3.1-4.9,5.3-6.7,2.2-1.8,4.9-3.1,7.9-4s6.2-1.3,9.6-1.3c1.7,0,3.5,.1,5.3,.4s3.4,.6,4.9,1.1,2.9,1,4.1,1.5c1.2,.6,2,1,2.3,1.4,.4,.4,.6,.7,.8,1,.1,.3,.2,.6,.3,1.1,.1,.4,.2,1,.2,1.7s.1,1.5,.1,2.5c0,1.1,0,2-.1,2.8s-.2,1.4-.3,1.9c-.1,.5-.3,.9-.6,1.1-.2,.2-.6,.3-1,.3s-1.1-.3-2-.8-2-1.1-3.4-1.7c-1.3-.6-2.9-1.2-4.6-1.7-1.8-.5-3.7-.8-5.8-.8-1.6,0-3.1,.2-4.3,.6s-2.2,1-3.1,1.7c-.8,.7-1.4,1.6-1.8,2.5-.4,1-.6,2-.6,3.1,0,1.6,.4,3.1,1.3,4.3,1.2,1.2,2.4,2.3,3.9,3.2h0Z"></path></g></svg>