<svg width="425" height="425" viewBox="0 0 425 425" fill="none" xmlns="http://www.w3.org/2000/svg">
<g clip-path="url(#clip0_702_33)">
<rect width="425" height="425" fill="white"/>
<path d="M60.9617 384.818C61.3761 385.19 61.5833 385.562 61.5833 386.121V397.839C61.5833 398.397 61.3761 398.863 60.9617 399.142C57.6463 401.839 53.3985 403.234 48.011 403.234C44.2812 403.234 40.8622 402.397 37.7541 400.723C34.6459 399.048 32.1593 396.723 30.2944 393.84C28.4296 390.957 27.4971 387.795 27.4971 384.353C27.4971 380.912 28.4296 377.749 30.1908 374.866C32.0557 371.983 34.5423 369.658 37.6504 367.983C40.7586 366.309 44.1776 365.472 48.011 365.472C50.4976 365.472 52.8805 365.845 54.9526 366.496C57.0247 367.147 58.9932 368.262 60.9617 369.658C61.3761 369.936 61.5833 370.309 61.5833 370.773C61.5833 371.053 61.4798 371.239 61.3761 371.425C61.2726 371.611 61.0654 371.796 60.7545 371.89C60.6509 372.076 60.5473 372.262 60.2365 372.447C60.0293 372.634 59.7184 372.634 59.4077 372.634C58.8896 372.634 58.4752 372.447 58.0607 372.168C56.7139 371.053 55.1598 370.215 53.6057 369.751C51.9481 369.285 50.0831 369.007 48.011 369.007C45.0064 369.007 42.3127 369.751 39.8261 371.145C37.3396 372.541 35.2675 374.401 33.817 376.819C32.3665 379.144 31.5376 381.749 31.5376 384.446C31.5376 387.236 32.2629 389.84 33.7134 392.259C35.1639 394.584 37.236 396.537 39.7226 397.933C42.2091 399.327 45.0064 399.978 48.011 399.978C51.43 399.978 54.5381 399.048 57.5428 397.282V387.795H49.3579C48.7362 387.795 48.2182 387.608 47.9074 387.329C47.4929 387.05 47.2857 386.585 47.2857 386.121C47.2857 385.655 47.4929 385.283 47.9074 385.004C48.3218 384.725 48.7362 384.539 49.3579 384.539H59.5112C60.1329 384.353 60.6509 384.539 60.9617 384.818Z" fill="black"/>
<path d="M101.782 399.793C102.197 400.165 102.404 400.537 102.404 401.095C102.404 401.652 102.197 402.025 101.782 402.397C101.368 402.769 100.953 402.954 100.332 402.954H75.5702C75.0521 402.954 74.5341 402.769 74.1197 402.397C73.7053 402.025 73.498 401.56 73.498 401.095V367.798C73.498 367.24 73.7053 366.774 74.1197 366.495C74.5341 366.123 75.0521 365.938 75.5702 365.938H100.332C100.953 365.938 101.472 366.123 101.782 366.495C102.197 366.868 102.404 367.24 102.404 367.798C102.404 368.355 102.197 368.727 101.782 369.1C101.368 369.472 100.953 369.564 100.332 369.564H77.6423V382.678H94.1156C94.7372 382.678 95.2553 382.865 95.566 383.237C95.9805 383.609 96.1877 383.981 96.1877 384.539C96.1877 385.004 95.9805 385.469 95.566 385.841C95.1516 386.214 94.6336 386.398 94.1156 386.398H77.6423V399.607H100.332C100.953 399.235 101.368 399.42 101.782 399.793Z" fill="black"/>
<path d="M143.12 367.798C146.333 369.471 148.819 371.704 150.684 374.587C152.445 377.47 153.378 380.725 153.378 384.259C153.378 387.887 152.445 391.142 150.684 394.025C148.923 396.909 146.333 399.141 143.12 400.816C139.909 402.49 136.282 403.233 132.346 403.233C128.305 403.233 124.783 402.397 121.571 400.816C118.358 399.141 115.873 396.909 114.007 394.025C112.247 391.142 111.313 387.887 111.313 384.259C111.313 380.632 112.247 377.47 114.007 374.587C115.769 371.704 118.358 369.471 121.571 367.798C124.783 366.123 128.409 365.379 132.346 365.379C136.282 365.379 139.909 366.216 143.12 367.798ZM123.643 370.866C121.052 372.262 118.98 374.121 117.53 376.447C116.079 378.772 115.354 381.376 115.354 384.259C115.354 387.143 116.079 389.748 117.53 392.165C118.98 394.491 121.052 396.351 123.643 397.746C126.233 399.141 129.134 399.793 132.346 399.793C135.557 399.793 138.459 399.141 141.048 397.746C143.639 396.351 145.711 394.491 147.161 392.165C148.612 389.84 149.337 387.143 149.337 384.259C149.337 381.376 148.612 378.772 147.161 376.447C145.711 374.121 143.639 372.262 141.048 370.866C138.459 369.471 135.557 368.82 132.346 368.82C129.134 368.913 126.233 369.564 123.643 370.866Z" fill="black"/>
<path d="M185.184 367.053C187.257 368.169 188.915 369.564 190.158 371.332C190.365 371.703 190.572 372.075 190.572 372.447C190.572 373.005 190.262 373.564 189.64 373.843C189.33 373.936 189.018 374.028 188.708 374.028C188.293 374.028 187.982 373.936 187.671 373.749C187.361 373.564 187.05 373.377 186.843 373.005C184.874 370.215 181.87 368.82 177.933 368.82C175.135 368.82 172.856 369.379 171.198 370.401C169.541 371.517 168.712 373.005 168.712 374.959C168.712 378.679 172.027 380.911 178.658 381.655C183.009 382.213 186.221 383.423 188.397 385.283C190.572 387.143 191.609 389.561 191.609 392.538C191.609 394.77 190.987 396.63 189.847 398.304C188.603 399.885 187.05 401.095 184.978 401.931C182.905 402.769 180.626 403.14 178.036 403.14C174.72 403.14 171.716 402.489 169.126 401.187C166.535 399.885 164.671 398.212 163.531 395.978C163.428 395.793 163.324 395.514 163.324 395.235C163.324 394.77 163.531 394.397 163.842 394.119C164.256 393.84 164.671 393.653 165.396 393.653C165.81 393.653 166.225 393.746 166.535 393.933C166.95 394.119 167.157 394.397 167.365 394.77C168.194 396.165 169.541 397.374 171.406 398.211C173.27 399.048 175.446 399.514 177.933 399.514C180.833 399.514 183.112 398.863 184.874 397.653C186.636 396.444 187.464 394.676 187.464 392.444C187.464 390.491 186.636 388.817 184.978 387.421C183.32 386.027 180.937 385.189 177.621 384.817C173.581 384.353 170.369 383.236 167.987 381.376C165.603 379.516 164.463 377.283 164.463 374.587C164.463 372.726 165.085 371.052 166.225 369.564C167.365 368.169 168.919 367.053 170.991 366.216C173.063 365.471 175.342 365.1 177.829 365.1C180.626 365.379 183.009 365.937 185.184 367.053Z" fill="black"/>
<path d="M206.839 402.303C206.424 402.675 206.01 402.862 205.389 402.862C204.767 402.862 204.249 402.675 203.938 402.303C203.523 401.932 203.316 401.56 203.316 401.001V367.704C203.316 367.146 203.523 366.681 203.938 366.402C204.352 366.03 204.767 365.844 205.389 365.844H215.956C218.546 365.844 220.825 366.402 222.794 367.425C224.866 368.448 226.42 369.844 227.56 371.704C228.699 373.564 229.217 375.61 229.217 377.935C229.217 380.261 228.699 382.306 227.56 384.074C226.42 385.841 224.866 387.236 222.794 388.259C220.722 389.282 218.443 389.748 215.956 389.748H207.461V401.001C207.461 401.56 207.253 401.932 206.839 402.303ZM220.722 385.097C222.172 384.353 223.208 383.423 224.038 382.121C224.866 380.818 225.177 379.423 225.177 377.842C225.177 376.168 224.763 374.772 224.038 373.47C223.312 372.168 222.172 371.146 220.722 370.495C219.272 369.751 217.717 369.378 215.956 369.378H207.461V386.213H215.956C217.717 386.213 219.375 385.841 220.722 385.097Z" fill="black"/>
<path d="M268.484 401.001C268.484 401.467 268.277 401.932 267.862 402.303C267.447 402.675 266.93 402.862 266.412 402.862C265.48 402.862 264.858 402.49 264.443 401.746L260.92 394.118H240.51L236.987 401.746C236.677 402.49 236.055 402.862 235.123 402.862C234.501 402.862 234.086 402.675 233.673 402.303C233.258 401.932 233.154 401.467 233.154 401.001C233.154 400.722 233.258 400.443 233.361 400.165L248.903 367.146C249.316 366.309 249.938 365.844 250.87 365.844C251.803 365.844 252.425 366.309 252.839 367.146L268.38 400.258C268.38 400.443 268.484 400.722 268.484 401.001ZM259.47 390.863L250.663 371.889L241.857 390.863H259.47Z" fill="black"/>
<path d="M301.431 366.309C301.741 366.588 301.948 367.053 301.948 367.518C301.948 367.983 301.741 368.355 301.431 368.727C301.119 369.006 300.602 369.193 300.084 369.193H287.548V401.001C287.548 401.467 287.34 401.932 286.926 402.303C286.511 402.675 286.097 402.862 285.475 402.862C284.957 402.862 284.439 402.675 284.025 402.303C283.61 401.932 283.403 401.467 283.403 401.001V369.193H270.866C270.349 369.193 269.831 369.006 269.52 368.727C269.209 368.448 269.002 367.983 269.002 367.518C269.002 367.053 269.209 366.588 269.52 366.309C269.831 366.03 270.349 365.844 270.866 365.844H300.084C300.602 365.844 301.016 366.03 301.431 366.309Z" fill="black"/>
<path d="M311.895 366.402C312.309 366.03 312.827 365.844 313.346 365.844C313.967 365.844 314.485 366.03 314.796 366.402C315.21 366.774 315.418 367.146 315.418 367.704V401.001C315.418 401.467 315.21 401.932 314.796 402.303C314.381 402.675 313.967 402.862 313.346 402.862C312.827 402.862 312.309 402.675 311.895 402.303C311.48 401.932 311.273 401.467 311.273 401.001V367.704C311.273 367.146 311.48 366.681 311.895 366.402Z" fill="black"/>
<path d="M360.279 401.001C360.279 401.467 360.071 401.932 359.657 402.303C359.242 402.675 358.724 402.862 358.206 402.862C357.273 402.862 356.652 402.49 356.238 401.746L352.715 394.118H332.305L328.782 401.746C328.472 402.49 327.85 402.862 326.917 402.862C326.295 402.862 325.881 402.675 325.466 402.303C325.053 401.932 324.948 401.467 324.948 401.001C324.948 400.722 325.053 400.443 325.156 400.165L340.697 367.146C341.111 366.309 341.733 365.844 342.665 365.844C343.597 365.844 344.219 366.309 344.634 367.146L360.174 400.258C360.279 400.443 360.279 400.722 360.279 401.001ZM351.368 390.863L342.562 371.889L333.755 390.863H351.368Z" fill="black"/>
<path d="M395.815 399.792C396.23 400.165 396.437 400.537 396.437 401.094C396.437 401.652 396.23 402.024 395.815 402.397C395.4 402.769 394.986 402.862 394.365 402.862H371.675C371.156 402.862 370.639 402.675 370.224 402.303C369.809 401.932 369.603 401.467 369.603 401.001V367.704C369.603 367.239 369.809 366.774 370.224 366.402C370.639 366.03 371.156 365.844 371.675 365.844C372.296 365.844 372.815 366.03 373.125 366.402C373.54 366.774 373.747 367.146 373.747 367.704V399.328H394.365C394.883 399.328 395.4 399.513 395.815 399.792Z" fill="black"/>
<path d="M351.193 66.2894C351.007 66.351 350.823 66.351 350.639 66.4742C347.557 68.2611 344.168 69.0005 340.718 69.7399C338.87 70.1712 336.959 70.4177 335.049 70.7258C333.94 70.9107 334.494 72.5126 333.385 72.6975C332.708 72.8207 331.907 74.238 331.291 74.4844C331.475 74.238 329.442 72.5742 329.319 72.1429C329.011 73.745 329.381 75.347 328.025 76.2713C325.375 78.0582 323.835 80.338 321.185 82.1249C318.967 83.6037 316.256 85.2058 314.161 86.8078C313.544 87.3007 310.772 87.0543 310.833 87.732C310.957 88.9028 312.189 89.0876 313.237 88.8412C314.346 88.5947 315.455 88.225 316.44 87.732C318.843 86.4998 321.309 85.8219 324.081 85.9452C325.129 86.0068 326.176 85.6371 327.224 85.3906C329.257 84.8361 331.229 84.1583 333.262 83.5421C333.817 83.3572 334.371 83.1724 334.864 82.9259C336.22 82.1865 336.404 80.6461 335.418 79.537C335.049 79.1673 334.618 78.7976 334.433 78.3663C334.187 77.8734 333.94 77.0724 334.125 76.8258C334.556 76.4561 335.357 76.1481 335.911 76.2713C337.267 76.641 338.561 77.1956 339.855 77.8117C342.813 79.1057 344.97 78.7976 347.249 76.641C348.05 75.9016 348.913 75.2855 349.529 74.4227C350.946 72.6359 352.302 70.849 353.473 68.8772C353.78 68.3227 353.657 67.3368 353.349 66.7207C352.98 65.9196 351.993 65.9812 351.193 66.2894Z" fill="black"/>
<path d="M308.677 180.403C305.473 179.109 302.393 177.63 299.25 176.213C298.017 175.658 296.724 175.104 295.43 174.611C294.012 174.057 292.534 174.118 291.178 174.858C290.192 175.412 289.145 175.967 288.159 176.521C286.926 177.199 286.187 178.124 285.941 179.417C285.509 181.635 285.262 183.915 284.523 186.071C282.49 192.295 280.272 198.519 278.115 204.742C277.253 207.268 276.267 209.794 275.28 212.259C274.726 213.677 274.172 215.278 273.124 216.326C271.584 217.804 270.351 219.345 269.366 221.132C266.716 225.876 261.787 226.554 257.288 224.52C254.824 223.35 252.606 221.748 250.265 220.269C249.402 219.714 248.601 219.16 247.923 218.483C246.69 217.311 246.69 216.017 247.985 214.847C248.478 214.354 249.155 214.046 249.772 213.614C251.619 212.321 253.345 210.904 255.255 209.732C258.09 207.945 260.862 206.098 263.204 203.632C264.313 202.462 265.298 201.229 266.408 200.182C270.474 196.362 273.926 192.11 276.76 187.366C277.622 185.887 278.67 184.531 279.409 182.991C280.149 181.388 279.039 180.157 277.19 180.28C275.466 180.403 274.48 181.512 273.432 182.621C272.015 184.1 270.536 185.517 268.996 186.934C268.257 187.613 267.456 188.106 266.654 188.721C266.161 189.091 265.73 189.46 265.298 189.892C265.237 189.83 265.176 189.769 265.114 189.769C264.991 189.769 264.93 189.769 264.806 189.769C264.744 189.769 264.683 189.769 264.683 189.769C264.621 189.769 264.56 189.707 264.498 189.707C264.498 189.646 264.437 189.584 264.437 189.523C264.437 189.46 264.437 189.399 264.437 189.399C264.437 189.276 264.437 189.214 264.437 189.091C264.374 189.03 264.313 188.968 264.251 188.906C264.498 188.537 264.744 188.167 265.053 187.859C266.1 186.811 266.408 185.764 265.73 184.347C265.422 183.73 265.422 182.806 265.73 182.19C266.84 180.095 266.778 179.91 264.437 179.171C264.374 179.171 264.374 179.109 264.313 179.109C262.958 178.678 262.711 177.692 263.635 176.644C263.944 176.337 264.313 176.028 264.56 175.658C264.991 175.104 264.991 174.672 264.128 174.488C263.327 174.302 262.527 173.934 261.725 173.687C259.384 172.948 257.474 173.625 256.241 175.658C255.625 176.644 255.132 177.815 254.392 178.678C252.852 180.527 251.189 182.374 249.402 184.038C246.813 186.503 244.226 188.906 241.453 191.124C238.31 193.65 234.983 195.93 231.78 198.333C230.547 199.258 230.301 200.12 230.794 201.415C231.04 202.031 231.225 202.708 231.471 203.386C231.41 203.448 231.348 203.509 231.287 203.571C231.287 203.632 231.225 203.694 231.225 203.756C231.163 203.818 231.04 203.879 230.978 204.002C230.917 204.064 230.794 204.125 230.732 204.249C230.67 204.311 230.547 204.372 230.485 204.495C229.438 204.495 228.514 204.002 228.391 203.078C228.082 201.045 226.727 199.505 225.679 197.84C224.385 195.869 224.077 193.404 222.229 191.679C221.058 190.57 220.134 189.337 219.148 188.106C216.929 185.333 214.712 182.56 212.555 179.725C210.336 176.891 208.057 174.057 205.962 171.099C204.668 169.312 203.744 167.279 202.511 165.369C201.34 163.459 200.17 161.549 198.198 160.254C197.52 159.762 196.72 159.207 196.411 158.467C195.055 155.202 192.652 152.614 190.742 149.718C189.448 147.746 187.969 145.959 186.738 143.925C184.026 139.366 181.253 134.868 177.865 130.739C175.646 128.09 173.921 125.133 172.75 121.929C172.812 121.867 172.873 121.806 172.936 121.743C172.936 121.62 172.936 121.559 172.936 121.436C172.936 121.374 172.936 121.313 172.936 121.313C172.936 121.189 172.936 121.127 172.936 121.004C172.936 120.943 172.936 120.881 172.936 120.881C172.936 120.757 172.936 120.696 172.936 120.573C172.936 120.511 172.936 120.45 172.936 120.45V120.141C172.936 120.08 172.936 120.018 172.936 120.018C172.936 119.896 172.936 119.834 172.936 119.71C172.936 119.649 172.936 119.587 172.936 119.587C172.873 119.464 172.812 119.341 172.75 119.279C172.689 119.217 172.566 119.156 172.504 119.033C172.38 118.971 172.257 118.91 172.134 118.848C172.073 118.848 172.011 118.848 171.949 118.848C171.826 118.848 171.764 118.848 171.641 118.848C171.58 118.848 171.518 118.848 171.456 118.848C171.333 118.848 171.271 118.848 171.148 118.848C171.087 118.91 171.024 118.971 170.902 119.033C170.84 119.033 170.84 119.033 170.779 119.033C169.916 117.985 169.484 116.814 169.361 115.458C169.423 115.397 169.484 115.335 169.546 115.274C169.546 115.213 169.608 115.151 169.608 115.09C169.67 114.966 169.731 114.904 169.793 114.781C169.793 114.72 169.793 114.658 169.793 114.658C169.731 114.534 169.67 114.411 169.608 114.35L169.361 114.103C169.3 114.041 169.177 113.98 169.114 113.857C169.053 113.795 168.93 113.734 168.868 113.61L168.499 113.425H168.376C167.574 112.317 166.65 111.268 165.973 110.16C164.37 107.325 162.891 104.368 161.29 101.533C159.133 97.8363 156.976 94.2009 154.758 90.5039C152.232 86.3755 149.706 82.1856 147.118 78.1189C145.885 76.1471 144.715 74.1754 144.16 71.9572C143.852 70.7864 143.544 69.6157 142.927 68.5682C141.017 65.5489 139.107 62.5298 137.013 59.6338C133.192 54.3347 129.434 48.9124 124.751 44.2295C121.793 41.2103 119.02 38.0062 116.063 35.0486C114.953 33.9395 113.598 33.0768 112.242 32.2758C110.702 31.2899 109.039 30.4889 107.436 29.5647C107.497 29.503 107.559 29.4415 107.559 29.3798C107.497 29.3181 107.436 29.195 107.374 29.1334C107.313 29.0717 107.251 28.9485 107.19 28.8869C107.129 28.8252 107.066 28.7021 106.943 28.6404C106.82 28.5788 106.759 28.5172 106.636 28.4555C106.142 27.9626 105.711 27.3465 105.094 27.0383C103.554 26.1757 101.891 25.4364 100.227 24.7585C97.7623 23.7726 95.2976 22.6636 92.7097 21.9242C90.8612 21.3696 88.8895 21.308 86.9177 21H83.4056C83.1591 21.0616 82.9127 21.1232 82.6661 21.1848C80.756 21.4313 78.7227 21.4313 76.9974 22.0475C72.3145 23.7727 67.57 25.498 63.072 27.7779C56.3557 31.1667 50.0707 35.2335 44.8333 40.5326C41.7525 43.675 39.2877 47.1872 37.5009 51.069C37.0079 52.1782 36.5766 53.5338 36.7615 54.6429C37.1312 56.9843 40.0272 58.4631 42.5534 57.9702C44.5252 57.6004 46.2505 56.7378 47.9142 55.6903C51.9192 53.2872 56.0476 51.069 59.9294 48.4195C63.0103 46.3862 66.3377 45.0922 69.9114 44.1063C72.2528 43.4901 74.6559 43.2437 77.059 42.9356C78.7843 42.7508 80.6328 42.5043 82.2348 42.874C88.8895 44.3527 94.3118 47.7417 98.5633 52.7943C98.7482 53.0408 99.1795 53.164 99.4875 53.2873L99.7341 53.5337C99.7956 53.472 99.8571 53.4105 99.8571 53.4105C99.7956 53.4722 99.7341 53.5337 99.7341 53.5337C99.7956 53.5954 99.9186 53.6569 99.9801 53.7801C100.043 53.8418 100.165 53.9033 100.227 54.0266C100.288 54.0883 100.411 54.1498 100.474 54.2731C100.535 54.3347 100.658 54.3964 100.72 54.5196C100.781 54.5813 100.843 54.6428 100.967 54.766C101.028 54.7044 101.09 54.7044 101.151 54.6428C101.09 54.7044 101.028 54.766 100.967 54.766C100.967 54.8277 101.028 54.8892 101.028 54.9509C101.09 55.1358 101.213 55.3206 101.274 55.5055C101.274 55.6288 101.213 55.8135 101.336 55.9368C103 58.5863 104.726 61.2359 106.389 63.8854C107.129 64.9945 107.867 66.1035 108.484 67.2743C109.408 69.0612 110.456 70.7864 112.304 71.8339C112.304 71.9573 112.304 72.0805 112.304 72.2036V72.3268C112.366 72.45 112.427 72.5734 112.489 72.6965C112.489 72.7582 112.55 72.8197 112.55 72.943C112.612 73.0047 112.612 73.0662 112.673 73.0662C112.489 74.4834 113.475 75.3461 114.399 76.2087C114.46 76.2087 114.522 76.2087 114.583 76.2087C114.646 76.2703 114.769 76.3319 114.83 76.4551C114.892 76.3935 114.953 76.332 114.953 76.332C114.892 76.3936 114.83 76.4551 114.83 76.4551C114.953 76.5167 115.077 76.5783 115.2 76.64H115.262H115.323C115.446 76.64 115.509 76.64 115.632 76.64H115.693H115.755C115.878 76.64 115.939 76.64 116.063 76.64H116.125H116.186C116.248 76.64 116.309 76.7016 116.371 76.7016C116.495 76.7633 116.556 76.8248 116.679 76.8864C117.357 77.7491 118.158 78.5501 118.712 79.4744C119.575 80.9532 120.315 82.4937 121.054 84.034C121.178 84.3422 121.054 84.7118 121.054 85.0815C120.746 85.0199 120.438 85.0199 120.129 84.9583C119.883 84.9583 119.452 84.8351 119.39 84.9583C119.205 85.1432 119.205 85.5129 119.205 85.7594C119.205 86.0674 119.39 86.3139 119.513 86.5604C123.211 93.5847 126.969 100.671 130.728 107.695C130.974 108.188 131.775 108.496 132.268 108.804C132.7 109.112 133.315 109.235 133.562 109.605C135.041 112.255 136.581 114.843 137.875 117.616C138.614 119.217 138.861 121.066 139.539 122.73C140.156 124.209 140.771 125.872 141.942 126.92C143.236 128.152 144.037 129.384 144.222 131.048C144.407 132.403 144.776 133.575 146.132 134.252C146.317 134.375 146.379 134.622 146.502 134.868C147.61 136.839 148.535 138.935 149.829 140.784C151.555 143.371 153.218 146.021 155.929 147.87C156.052 147.993 156.176 148.116 156.299 148.301C157.408 149.41 157.346 150.95 157.593 152.306C157.901 154.031 158.271 155.694 160.242 156.496H160.489C160.551 156.557 160.612 156.619 160.735 156.68C160.735 156.742 160.735 156.866 160.735 156.927C161.044 157.236 161.351 157.605 161.659 157.913C161.721 158.036 161.844 158.097 161.906 158.221C161.906 158.283 161.845 158.344 161.845 158.406C161.782 159.515 161.721 160.686 161.598 161.795C161.536 162.842 162.091 163.273 163.015 163.766C164.185 164.383 165.541 165.183 166.158 166.231C167.514 168.388 168.437 170.852 169.608 173.132C170.471 174.734 171.457 176.337 172.566 177.815C173.551 179.109 174.784 180.28 175.708 181.574C177.803 184.408 179.775 187.243 181.809 190.139C183.349 192.295 184.889 194.513 186.429 196.67C186.861 197.286 187.292 197.84 187.723 198.395C189.326 200.429 190.928 202.401 192.468 204.434C193.762 206.098 194.932 207.822 196.165 209.487C196.905 210.472 197.644 211.458 198.507 212.321C199.431 213.307 200.478 214.108 201.341 215.094C203.067 217.004 204.668 218.914 206.27 220.886C207.626 222.487 208.858 224.151 210.153 225.753C210.09 225.815 210.029 225.876 209.967 225.939C209.967 226.061 209.967 226.123 209.967 226.246C209.967 226.307 209.967 226.369 209.967 226.369C210.029 226.493 210.09 226.616 210.153 226.677C210.214 226.616 210.276 226.554 210.337 226.554C210.276 226.616 210.214 226.677 210.153 226.677C210.153 226.739 210.214 226.8 210.214 226.862C210.214 226.924 210.214 226.986 210.214 226.986C210.276 227.109 210.337 227.232 210.399 227.293C210.46 227.355 210.522 227.416 210.646 227.54C210.646 227.602 210.646 227.663 210.707 227.725C211.2 228.464 211.631 229.389 212.247 229.943C216.067 233.455 219.949 236.844 223.893 240.295C224.448 240.788 225.125 241.095 225.679 241.465C225.742 241.465 225.803 241.465 225.865 241.465C225.926 241.527 226.049 241.588 226.111 241.651C226.234 241.712 226.358 241.774 226.481 241.835H226.542C226.604 241.835 226.728 241.897 226.789 241.897C226.851 242.205 226.851 242.636 227.097 242.821C229.624 245.039 232.088 247.381 235.538 248.305C237.695 248.86 239.42 250.215 241.207 251.386C242.131 252.002 242.933 252.741 243.549 253.604C244.411 254.713 245.274 254.836 246.075 253.727C246.63 252.926 247.246 252.803 248.047 253.234C248.909 253.666 249.71 254.036 250.512 254.467C252.299 255.391 254.085 256.377 255.933 257.363C257.289 258.04 258.275 259.334 260.001 259.457C262.034 259.642 264.005 260.136 265.977 260.505H267.148C267.702 260.443 268.318 260.382 268.874 260.32C270.291 260.136 271.523 260.136 272.139 258.349C272.694 256.808 274.296 255.637 276.083 255.083C277.068 254.774 278.363 254.836 279.102 254.282C281.012 252.864 282.922 251.386 284.339 249.599C289.206 243.684 293.52 237.461 297.155 230.806C301.345 223.042 304.427 214.97 306.891 206.652C308.801 200.12 310.157 193.404 311.574 186.687C312.19 184.408 311.696 181.635 308.677 180.403Z" fill="black"/>
<path d="M308.677 180.403C305.473 179.109 302.393 177.63 299.25 176.213C298.017 175.658 296.724 175.104 295.43 174.611C294.012 174.057 292.534 174.118 291.178 174.858C290.192 175.412 289.145 175.967 288.159 176.521C286.926 177.199 286.187 178.124 285.941 179.417C285.509 181.635 285.262 183.915 284.523 186.071C282.49 192.295 280.272 198.519 278.115 204.742C277.253 207.268 276.267 209.794 275.28 212.259C274.726 213.677 274.172 215.278 273.124 216.326C271.584 217.804 270.351 219.345 269.366 221.132C266.716 225.876 261.787 226.554 257.288 224.52C254.824 223.35 252.606 221.748 250.265 220.269C249.402 219.714 248.601 219.16 247.923 218.483C246.69 217.311 246.69 216.017 247.985 214.847C248.478 214.354 249.155 214.046 249.772 213.614C251.619 212.321 253.345 210.904 255.255 209.732C258.09 207.945 260.862 206.098 263.204 203.632C264.313 202.462 265.298 201.229 266.408 200.182C270.474 196.362 273.926 192.11 276.76 187.366C277.622 185.887 278.67 184.531 279.409 182.991C280.149 181.388 279.039 180.157 277.19 180.28C275.466 180.403 274.48 181.512 273.432 182.621C272.015 184.1 270.536 185.517 268.996 186.934C268.257 187.613 267.456 188.106 266.654 188.721C266.161 189.091 265.73 189.46 265.298 189.892C265.237 189.83 265.176 189.769 265.114 189.769C264.991 189.769 264.93 189.769 264.806 189.769C264.744 189.769 264.683 189.769 264.683 189.769C264.621 189.769 264.56 189.707 264.498 189.707C264.498 189.646 264.437 189.584 264.437 189.523C264.437 189.46 264.437 189.399 264.437 189.399C264.437 189.276 264.437 189.214 264.437 189.091C264.374 189.03 264.313 188.968 264.251 188.906C264.498 188.537 264.744 188.167 265.053 187.859C266.1 186.811 266.408 185.764 265.73 184.347C265.422 183.73 265.422 182.806 265.73 182.19C266.84 180.095 266.778 179.91 264.437 179.171C264.374 179.171 264.374 179.109 264.313 179.109C262.958 178.678 262.711 177.692 263.635 176.644C263.944 176.337 264.313 176.028 264.56 175.658C264.991 175.104 264.991 174.672 264.128 174.488C263.327 174.302 262.527 173.934 261.725 173.687C259.384 172.948 257.474 173.625 256.241 175.658C255.625 176.644 255.132 177.815 254.392 178.678C252.852 180.527 251.189 182.374 249.402 184.038C246.813 186.503 244.226 188.906 241.453 191.124C238.31 193.65 234.983 195.93 231.78 198.333C230.547 199.258 230.301 200.12 230.794 201.415C231.04 202.031 231.225 202.708 231.471 203.386C231.41 203.448 231.348 203.509 231.287 203.571C231.287 203.632 231.225 203.694 231.225 203.756C231.163 203.818 231.04 203.879 230.978 204.002C230.917 204.064 230.794 204.125 230.732 204.249C230.67 204.311 230.547 204.372 230.485 204.495C229.438 204.495 228.514 204.002 228.391 203.078C228.082 201.045 226.727 199.505 225.679 197.84C224.385 195.869 224.077 193.404 222.229 191.679C221.058 190.57 220.134 189.337 219.148 188.106C216.929 185.333 214.712 182.56 212.555 179.725C210.336 176.891 208.057 174.057 205.962 171.099C204.668 169.312 203.744 167.279 202.511 165.369C201.34 163.459 200.17 161.549 198.198 160.254C197.52 159.762 196.72 159.207 196.411 158.467C195.055 155.202 192.652 152.614 190.742 149.718C189.448 147.746 187.969 145.959 186.738 143.925C184.026 139.366 181.253 134.868 177.865 130.739C175.646 128.09 173.921 125.133 172.75 121.929C172.812 121.867 172.873 121.806 172.936 121.743C172.936 121.62 172.936 121.559 172.936 121.436C172.936 121.374 172.936 121.313 172.936 121.313C172.936 121.189 172.936 121.127 172.936 121.004C172.936 120.943 172.936 120.881 172.936 120.881C172.936 120.757 172.936 120.696 172.936 120.573C172.936 120.511 172.936 120.45 172.936 120.45V120.141C172.936 120.08 172.936 120.018 172.936 120.018C172.936 119.896 172.936 119.834 172.936 119.71C172.936 119.649 172.936 119.587 172.936 119.587C172.873 119.464 172.812 119.341 172.75 119.279C172.689 119.217 172.566 119.156 172.504 119.033C172.38 118.971 172.257 118.91 172.134 118.848C172.073 118.848 172.011 118.848 171.949 118.848C171.826 118.848 171.764 118.848 171.641 118.848C171.58 118.848 171.518 118.848 171.456 118.848C171.333 118.848 171.271 118.848 171.148 118.848C171.087 118.91 171.024 118.971 170.902 119.033C170.84 119.033 170.84 119.033 170.779 119.033C169.916 117.985 169.484 116.814 169.361 115.458C169.423 115.397 169.484 115.335 169.546 115.274C169.546 115.213 169.608 115.151 169.608 115.09C169.67 114.966 169.731 114.904 169.793 114.781C169.793 114.72 169.793 114.658 169.793 114.658C169.731 114.534 169.67 114.411 169.608 114.35L169.361 114.103C169.3 114.041 169.177 113.98 169.114 113.857C169.053 113.795 168.93 113.734 168.868 113.61L168.499 113.425H168.376C167.574 112.317 166.65 111.268 165.973 110.16C164.37 107.325 162.891 104.368 161.29 101.533C159.133 97.8363 156.976 94.2009 154.758 90.5039C152.232 86.3755 149.706 82.1856 147.118 78.1189C145.885 76.1471 144.715 74.1754 144.16 71.9572C143.852 70.7864 143.544 69.6157 142.927 68.5682C141.017 65.5489 139.107 62.5298 137.013 59.6338C133.192 54.3347 129.434 48.9124 124.751 44.2295C121.793 41.2103 119.02 38.0062 116.063 35.0486C114.953 33.9395 113.598 33.0768 112.242 32.2758C110.702 31.2899 109.039 30.4889 107.436 29.5647C107.497 29.503 107.559 29.4415 107.559 29.3798C107.497 29.3181 107.436 29.195 107.374 29.1334C107.313 29.0717 107.251 28.9485 107.19 28.8869C107.129 28.8252 107.066 28.7021 106.943 28.6404C106.82 28.5788 106.759 28.5172 106.636 28.4555C106.142 27.9626 105.711 27.3465 105.094 27.0383C103.554 26.1757 101.891 25.4364 100.227 24.7585C97.7623 23.7726 95.2976 22.6636 92.7097 21.9242C90.8612 21.3696 88.8895 21.308 86.9177 21H83.4056C83.1591 21.0616 82.9127 21.1232 82.6661 21.1848C80.756 21.4313 78.7227 21.4313 76.9974 22.0475C72.3145 23.7727 67.57 25.498 63.072 27.7779C56.3557 31.1667 50.0707 35.2335 44.8333 40.5326C41.7525 43.675 39.2877 47.1872 37.5009 51.069C37.0079 52.1782 36.5766 53.5338 36.7615 54.6429C37.1312 56.9843 40.0272 58.4631 42.5534 57.9702C44.5252 57.6004 46.2505 56.7378 47.9142 55.6903C51.9192 53.2872 56.0476 51.069 59.9294 48.4195C63.0103 46.3862 66.3377 45.0922 69.9114 44.1063C72.2528 43.4901 74.6559 43.2437 77.059 42.9356C78.7843 42.7508 80.6328 42.5043 82.2348 42.874C88.8895 44.3527 94.3118 47.7417 98.5633 52.7943C98.7482 53.0408 99.1795 53.164 99.4875 53.2873L99.7341 53.5337C99.7956 53.472 99.8571 53.4105 99.8571 53.4105C99.7956 53.4722 99.7341 53.5337 99.7341 53.5337C99.7956 53.5954 99.9186 53.6569 99.9801 53.7801C100.043 53.8418 100.165 53.9033 100.227 54.0266C100.288 54.0883 100.411 54.1498 100.474 54.2731C100.535 54.3347 100.658 54.3964 100.72 54.5196C100.781 54.5813 100.843 54.6428 100.967 54.766C101.028 54.7044 101.09 54.7044 101.151 54.6428C101.09 54.7044 101.028 54.766 100.967 54.766C100.967 54.8277 101.028 54.8892 101.028 54.9509C101.09 55.1358 101.213 55.3206 101.274 55.5055C101.274 55.6288 101.213 55.8135 101.336 55.9368C103 58.5863 104.726 61.2359 106.389 63.8854C107.129 64.9945 107.867 66.1035 108.484 67.2743C109.408 69.0612 110.456 70.7864 112.304 71.8339C112.304 71.9573 112.304 72.0805 112.304 72.2036V72.3268C112.366 72.45 112.427 72.5734 112.489 72.6965C112.489 72.7582 112.55 72.8197 112.55 72.943C112.612 73.0047 112.612 73.0662 112.673 73.0662C112.489 74.4834 113.475 75.3461 114.399 76.2087C114.46 76.2087 114.522 76.2087 114.583 76.2087C114.646 76.2703 114.769 76.3319 114.83 76.4551C114.892 76.3935 114.953 76.332 114.953 76.332C114.892 76.3936 114.83 76.4551 114.83 76.4551C114.953 76.5167 115.077 76.5783 115.2 76.64H115.262H115.323C115.446 76.64 115.509 76.64 115.632 76.64H115.693H115.755C115.878 76.64 115.939 76.64 116.063 76.64H116.125H116.186C116.248 76.64 116.309 76.7016 116.371 76.7016C116.495 76.7633 116.556 76.8248 116.679 76.8864C117.357 77.7491 118.158 78.5501 118.712 79.4744C119.575 80.9532 120.315 82.4937 121.054 84.034C121.178 84.3422 121.054 84.7118 121.054 85.0815C120.746 85.0199 120.438 85.0199 120.129 84.9583C119.883 84.9583 119.452 84.8351 119.39 84.9583C119.205 85.1432 119.205 85.5129 119.205 85.7594C119.205 86.0674 119.39 86.3139 119.513 86.5604C123.211 93.5847 126.969 100.671 130.728 107.695C130.974 108.188 131.775 108.496 132.268 108.804C132.7 109.112 133.315 109.235 133.562 109.605C135.041 112.255 136.581 114.843 137.875 117.616C138.614 119.217 138.861 121.066 139.539 122.73C140.156 124.209 140.771 125.872 141.942 126.92C143.236 128.152 144.037 129.384 144.222 131.048C144.407 132.403 144.776 133.575 146.132 134.252C146.317 134.375 146.379 134.622 146.502 134.868C147.61 136.839 148.535 138.935 149.829 140.784C151.555 143.371 153.218 146.021 155.929 147.87C156.052 147.993 156.176 148.116 156.299 148.301C157.408 149.41 157.346 150.95 157.593 152.306C157.901 154.031 158.271 155.694 160.242 156.496H160.489C160.551 156.557 160.612 156.619 160.735 156.68C160.735 156.742 160.735 156.866 160.735 156.927C161.044 157.236 161.351 157.605 161.659 157.913C161.721 158.036 161.844 158.097 161.906 158.221C161.906 158.283 161.845 158.344 161.845 158.406C161.782 159.515 161.721 160.686 161.598 161.795C161.536 162.842 162.091 163.273 163.015 163.766C164.185 164.383 165.541 165.183 166.158 166.231C167.514 168.388 168.437 170.852 169.608 173.132C170.471 174.734 171.457 176.337 172.566 177.815C173.551 179.109 174.784 180.28 175.708 181.574C177.803 184.408 179.775 187.243 181.809 190.139C183.349 192.295 184.889 194.513 186.429 196.67C186.861 197.286 187.292 197.84 187.723 198.395C189.326 200.429 190.928 202.401 192.468 204.434C193.762 206.098 194.932 207.822 196.165 209.487C196.905 210.472 197.644 211.458 198.507 212.321C199.431 213.307 200.478 214.108 201.341 215.094C203.067 217.004 204.668 218.914 206.27 220.886C207.626 222.487 208.858 224.151 210.153 225.753C210.09 225.815 210.029 225.876 209.967 225.939C209.967 226.061 209.967 226.123 209.967 226.246C209.967 226.307 209.967 226.369 209.967 226.369C210.029 226.493 210.09 226.616 210.153 226.677C210.214 226.616 210.276 226.554 210.337 226.554C210.276 226.616 210.214 226.677 210.153 226.677C210.153 226.739 210.214 226.8 210.214 226.862C210.214 226.924 210.214 226.986 210.214 226.986C210.276 227.109 210.337 227.232 210.399 227.293C210.46 227.355 210.522 227.416 210.646 227.54C210.646 227.602 210.646 227.663 210.707 227.725C211.2 228.464 211.631 229.389 212.247 229.943C216.067 233.455 219.949 236.844 223.893 240.295C224.448 240.788 225.125 241.095 225.679 241.465C225.742 241.465 225.803 241.465 225.865 241.465C225.926 241.527 226.049 241.588 226.111 241.651C226.234 241.712 226.358 241.774 226.481 241.835H226.542C226.604 241.835 226.728 241.897 226.789 241.897C226.851 242.205 226.851 242.636 227.097 242.821C229.624 245.039 232.088 247.381 235.538 248.305C237.695 248.86 239.42 250.215 241.207 251.386C242.131 252.002 242.933 252.741 243.549 253.604C244.411 254.713 245.274 254.836 246.075 253.727C246.63 252.926 247.246 252.803 248.047 253.234C248.909 253.666 249.71 254.036 250.512 254.467C252.299 255.391 254.085 256.377 255.933 257.363C257.289 258.04 258.275 259.334 260.001 259.457C262.034 259.642 264.005 260.136 265.977 260.505H267.148C267.702 260.443 268.318 260.382 268.874 260.32C270.291 260.136 271.523 260.136 272.139 258.349C272.694 256.808 274.296 255.637 276.083 255.083C277.068 254.774 278.363 254.836 279.102 254.282C281.012 252.864 282.922 251.386 284.339 249.599C289.206 243.684 293.52 237.461 297.155 230.806C301.345 223.042 304.427 214.97 306.891 206.652C308.801 200.12 310.157 193.404 311.574 186.687C312.19 184.408 311.696 181.635 308.677 180.403Z" fill="black"/>
<path d="M209.904 233.703C208.919 233.086 208.118 232.47 207.625 231.361C206.577 228.834 203.99 228.341 201.648 227.787C200.908 227.603 199.861 228.465 198.937 228.773C197.52 229.266 196.041 229.697 194.562 230.19C194.501 230.19 194.439 230.19 194.378 230.19C194.254 230.129 194.131 230.067 194.008 230.067C193.946 230.067 193.885 230.067 193.822 230.067C193.822 230.006 193.822 229.944 193.822 229.944C193.822 229.821 193.822 229.76 193.822 229.636C193.822 229.574 193.822 229.513 193.822 229.513V229.204C193.822 229.143 193.822 229.081 193.822 229.081C193.822 229.02 193.822 228.897 193.885 228.835C194.192 228.588 194.501 228.281 194.871 228.034C195.795 227.418 196.657 226.801 196.595 225.508C196.595 225.015 197.335 224.337 197.951 224.029C199.245 223.351 200.601 222.858 201.957 222.242C202.757 221.872 203.127 221.195 202.757 220.578C202.573 220.271 201.587 220.147 201.032 220.332C199.122 220.825 198.814 220.763 197.828 219.099C197.088 217.868 196.534 217.621 195.055 218.114C193.638 218.545 192.282 219.161 190.865 219.469C186.243 220.578 181.561 221.564 176.94 222.55C172.01 223.598 166.958 224.091 161.905 223.659C158.948 223.412 156.052 223.289 153.094 222.981C149.027 222.488 145.022 221.934 141.017 221.195C134.671 220.024 128.324 218.668 122.348 216.142C118.773 214.602 115.076 213.246 111.626 211.459C108.544 209.857 105.834 207.7 102.383 206.837C102.198 206.776 102.014 206.653 101.89 206.591C99.0558 204.866 96.0982 203.203 93.3254 201.293C89.9365 199.013 86.6708 196.61 83.3435 194.268C81.8647 193.221 80.5091 192.05 78.599 191.495C76.1959 190.755 74.2241 189.338 73.7312 186.689C73.6081 185.826 73.1151 185.456 72.314 185.149C71.3282 184.718 70.2191 184.225 69.4796 183.546C67.9393 182.129 66.5221 180.528 65.1049 178.987C63.8109 177.57 62.5785 176.214 61.8392 174.427C61.4694 173.626 61.1614 172.826 60.6068 172.147C58.2653 169.374 55.6775 166.787 53.4592 163.891C50.9946 160.748 48.7763 157.359 46.4965 154.032C45.2025 152.184 44.155 150.212 42.8611 148.363C41.8752 146.885 40.458 145.713 39.9651 143.927C39.5954 142.633 39.2874 141.277 38.5479 140.169C36.0832 136.471 34.2963 132.466 32.4478 128.523C30.7226 124.764 28.8741 120.944 27.3953 117.123C23.7598 107.819 21.2336 98.1453 18.9537 88.4715C18.3992 86.0068 17.6597 83.5421 16.181 81.4471C14.4557 78.9825 12.4223 78.9825 10.697 81.4471C8.29395 84.8361 7.67779 88.6563 7.3697 92.5999C7.24653 94.0787 7.12322 95.4959 7 96.9746V102.089C7.06166 102.52 7.12318 102.951 7.18486 103.383C7.3697 104.862 7.18486 106.402 7.7394 107.696C8.47882 109.36 8.41718 111.023 8.47882 112.749C8.47882 113.673 8.84852 114.597 9.09499 115.459C9.34146 116.445 9.77274 117.369 9.9576 118.418C10.4505 121.005 10.6354 123.594 11.3132 126.12C12.4839 130.248 13.9627 134.314 15.4415 138.381C17.2284 143.187 19.0153 148.055 20.987 152.799C22.1578 155.695 23.6982 158.468 25.177 161.241C27.5801 165.924 29.8599 170.669 32.5711 175.166C34.7893 178.863 37.4388 182.315 39.9651 185.826C41.5055 187.983 43.046 190.139 44.8329 192.111C47.4207 195.131 50.1319 198.027 52.9047 200.923C55.5542 203.696 58.2653 206.345 61.0381 208.994C61.4694 209.426 62.2705 209.549 62.8866 209.857C62.9482 209.919 63.0715 209.98 63.1331 210.103C63.2563 210.165 63.3795 210.226 63.5028 210.289C63.5644 210.289 63.626 210.289 63.6877 210.289C63.7493 210.289 63.8108 210.289 63.9341 210.289C63.9958 210.35 64.119 210.412 64.1806 210.473H64.3037C64.6119 210.473 64.9199 210.473 65.228 210.473H65.3512C65.4128 210.473 65.536 210.473 65.5977 210.473C65.6594 210.473 65.7208 210.473 65.7825 210.473C65.9674 210.596 66.2138 210.658 66.3987 210.782C68.9866 212.876 71.5745 215.033 73.4846 217.744C73.7927 218.175 74.224 218.606 74.6554 218.915C75.8261 219.839 76.9969 220.702 78.2291 221.502C81.0019 223.351 83.6514 225.508 86.7323 226.801C91.4768 228.835 95.79 231.546 100.411 233.826C102.814 234.997 105.094 236.537 108.113 235.983C108.483 235.921 108.914 236.044 109.223 236.167C111.194 236.846 113.166 237.584 115.138 238.263C119.821 239.926 124.627 241.097 129.187 243.13C131.651 244.239 134.608 244.486 137.381 244.917C141.571 245.595 145.823 246.273 150.075 246.766C153.402 247.135 156.729 247.197 160.057 247.197C168.806 247.197 177.617 247.628 186.243 245.656C189.818 244.856 193.453 243.993 196.965 242.883C199.615 242.083 202.08 240.789 204.606 239.68C206.516 238.817 208.487 238.077 210.336 237.03C211.507 235.86 211.322 234.566 209.904 233.703Z" fill="black"/>
<path d="M416.322 65.3028C416.076 63.0846 415.459 60.9279 414.042 59.0178C412.255 56.6148 410.468 54.1501 408.558 51.8087C406.463 49.2207 404.245 46.6945 402.027 44.2298C400.548 42.5661 398.699 41.3338 396.481 40.7176C393.4 39.7933 390.319 38.8691 387.177 38.1297C383.973 37.3902 380.892 38.1297 377.873 39.2388C374.977 40.2863 372.142 41.457 369.308 42.5661C366.967 43.552 364.502 44.4146 362.284 45.647C358.279 47.8652 355.445 51.2541 352.98 54.8895C351.193 57.5391 348.913 59.5108 346.079 61.1128C344.291 62.0987 342.628 63.3926 341.273 64.8715C339.917 66.2886 338.438 67.2745 336.59 67.9523C334.433 68.815 331.291 70.9716 329.195 71.9574C328.641 72.2655 328.025 72.512 327.593 72.8817C326.485 73.8059 325.499 74.9151 324.266 75.7161C320.753 78.0575 317.242 80.3373 313.606 82.494C311.634 83.6646 309.54 84.5889 307.383 85.39C303.378 86.8687 300.667 89.3334 299.928 93.4617C299.558 95.4335 299.188 97.4669 298.387 99.2537C297.586 101.102 297.462 102.766 298.264 104.491C298.88 105.908 298.695 107.264 298.079 108.62C297.586 109.79 297.216 110.961 296.785 112.131C294.382 119.217 292.533 126.426 289.452 133.328C286.926 138.997 283.537 144.111 280.21 149.287C278.053 152.614 275.343 155.633 272.693 158.652C270.66 160.994 268.318 163.151 266.161 165.369C265.422 166.17 264.498 166.786 263.819 167.648C262.895 168.758 263.327 169.805 264.744 170.298C265.114 170.421 265.545 170.483 265.976 170.545C268.071 170.976 270.351 170.853 272.015 172.455C272.816 173.194 273.494 173.934 274.294 174.673C275.404 175.72 276.76 175.413 277.314 174.057C277.499 173.625 277.56 173.133 277.622 172.64C277.93 169.744 279.409 167.711 282.12 166.293C285.447 164.568 288.713 162.781 291.794 160.625C297.093 156.866 301.037 152.244 303.317 146.329C305.227 141.277 305.904 136.039 306.212 130.741C306.274 129.878 306.335 129.076 306.582 128.275C306.705 127.906 307.075 127.598 307.383 127.289C307.691 127.659 308 127.968 308.184 128.337C308.431 128.829 308.492 129.385 308.677 129.878C309.108 130.863 310.156 131.109 310.895 130.309C311.573 129.569 312.189 128.645 312.497 127.721C313.976 123.038 315.393 118.355 314.654 113.426C314.223 110.838 313.853 108.188 312.127 105.97C310.033 103.259 310.403 102.088 312.189 99.377C313.237 97.7749 314.53 97.7133 315.947 98.7608C318.474 100.671 319.706 103.321 319.892 106.278C319.953 107.634 319.706 109.051 319.706 110.468C319.768 115.151 319.029 119.71 317.365 124.147C314.839 130.925 312.251 137.703 308.861 144.173C307.876 146.021 306.644 147.746 305.904 149.656C304.548 153.415 302.392 156.558 299.188 159.207C295.245 162.535 291.178 165.677 286.31 167.772C284.03 168.758 282.182 170.36 281.073 172.578C280.95 172.824 280.887 173.133 280.764 173.379C280.394 174.303 280.394 175.227 281.38 175.72C282.367 176.214 283.167 175.659 283.784 174.92C285.263 173.071 287.112 172.024 289.576 172.331C293.766 172.886 297.955 173.441 302.145 174.118C304.672 174.55 307.26 175.043 309.417 176.583C310.71 177.507 311.758 178.801 312.929 179.972C313.914 180.896 314.654 181.02 315.763 180.28C318.413 178.493 319.953 175.967 320.754 172.948C321.37 170.668 321.925 168.327 322.787 166.108C323.835 163.335 325.129 160.686 326.238 157.975C327.47 155.017 328.333 151.998 329.812 149.163C332.276 144.357 334.988 139.674 338.377 135.3C339.424 133.944 340.471 132.465 341.704 131.233C342.074 130.802 343.06 130.741 343.676 130.802C344.045 130.863 344.353 131.602 344.538 132.095C344.723 132.588 344.723 133.205 344.846 133.698C345.401 136.162 346.88 137.21 349.529 135.547C352.918 133.328 355.814 130.617 357.97 127.289C360.004 124.147 359.635 121.375 356.43 118.725C354.52 117.184 354.089 115.52 355.198 113.364C355.506 112.748 355.876 112.193 356.122 111.577C356.492 110.776 356.8 109.914 355.999 109.236C355.136 108.558 354.273 108.804 353.411 109.297C351.686 110.283 350.762 111.886 350.022 113.61C349.344 115.213 348.667 116.814 347.866 118.355C347.434 119.156 346.694 119.772 345.647 119.649C344.661 119.526 344.23 118.786 344.045 117.986C343.614 116.137 343.614 114.227 344.415 112.501C345.709 109.667 344.97 107.141 343.306 104.738C342.443 103.444 341.334 103.444 340.41 104.738C340.04 105.292 339.732 105.908 339.239 106.34C338.87 106.648 338.13 106.894 337.698 106.771C337.391 106.71 337.082 105.97 337.144 105.477C337.144 104.861 337.391 104.245 337.698 103.69C338.5 102.211 339.424 100.794 340.348 99.4387C341.15 98.2063 342.197 97.4053 343.86 97.4669C345.833 97.4669 347.126 96.4194 347.557 94.6942C348.297 91.7365 348.974 88.9021 347.064 85.9445C345.031 82.7404 346.387 78.6737 349.591 76.3939C352.98 73.9909 356.676 72.7585 360.928 72.9433C364.318 73.0665 366.165 74.3605 366.967 77.4413C367.152 78.1192 367.336 78.8585 367.706 79.5364C368.199 80.5222 369.37 80.5839 370.109 79.7213C370.787 78.8585 370.911 77.9343 370.602 76.9484C370.048 75.0383 369.555 73.1282 369.062 71.2181C367.891 66.8433 366.412 62.53 367.09 57.8472C367.398 55.5057 368.445 53.7805 370.479 52.6713C372.512 51.5622 374.3 50.3915 375.593 48.4814C376.271 47.4339 377.441 46.6945 378.797 46.6329C380.83 46.5712 382.926 46.6329 384.959 46.9409C388.102 47.3723 391.243 48.1117 394.386 48.6047C397.344 49.0976 400.178 49.7137 402.088 52.1784C402.52 52.6713 403.198 52.9794 403.691 53.4723C404.43 54.2118 405.354 54.9512 405.662 55.8138C406.34 57.8472 406.957 60.0037 407.018 62.0988C407.141 66.2887 406.957 70.4786 406.833 74.6686C406.771 76.2707 406.648 77.8727 406.217 79.4747C405.601 82.0627 404.861 84.6506 403.998 87.1769C403.012 90.1961 401.534 92.9688 398.699 94.8789C394.386 97.7133 389.765 99.5618 384.404 99.2538C381.386 99.0689 378.49 98.3295 375.655 97.4053C372.697 96.4194 369.801 96.0497 366.659 96.7891C365.056 97.1589 363.393 97.1589 361.729 97.2204C360.435 97.2821 359.326 96.4194 359.018 95.4951C358.402 93.5234 360.128 91.3668 362.284 91.3668C363.146 91.3668 364.132 91.49 364.564 90.6274C365.365 88.8405 366.166 86.992 366.782 85.1435C367.028 84.4041 366.535 83.7879 365.672 83.6647C364.811 83.5413 363.886 83.603 363.023 83.3566C360.25 82.6172 357.725 81.5698 356.183 79.0434C355.322 77.6262 353.842 77.5646 352.61 78.797C351.932 79.4747 351.254 80.2142 350.577 80.9536C349.344 82.1858 349.221 82.9253 350.207 84.4041C351.254 85.9445 351.994 87.5466 351.624 89.3951C351.377 90.5658 351.07 91.7365 350.7 92.9073C349.837 95.8032 350.7 97.5902 353.473 99.0074C354.52 99.5618 355.629 100.301 356.307 101.226C357.416 102.643 358.71 103.629 360.559 104.122C362.161 104.491 363.332 105.354 363.762 106.956C364.071 108.065 364.872 108.866 366.104 109.051C369.124 109.483 372.142 109.914 375.161 110.283C378.181 110.653 381.2 110.9 384.22 111.331C386.807 111.7 389.149 111.639 391.306 109.914C392.415 108.99 393.77 108.373 394.941 107.572C396.666 106.278 398.515 106.032 400.548 106.833C403.198 107.818 406.34 106.771 407.388 103.998C408.558 100.856 409.852 97.7133 410.961 94.5093C411.64 92.4759 412.501 90.5658 413.98 88.8405C414.781 87.9163 415.397 86.7456 415.583 85.6364C416.199 81.6929 416.753 77.7495 417 73.806C416.938 70.9099 416.63 68.0756 416.322 65.3028Z" fill="black"/>
<path d="M398.884 129.507C397.159 126.55 394.51 125.871 391.181 126.426C390.381 126.55 389.518 126.55 388.655 126.488C386.992 126.364 386.314 126.734 386.007 128.274C385.637 130.061 384.589 131.233 382.802 131.91C382.371 132.094 382.001 132.341 381.569 132.464C377.996 133.943 375.285 136.408 372.943 139.18C370.786 141.769 368.876 144.542 366.905 147.252C366.042 148.362 365.056 149.348 363.577 149.471C361.853 149.656 360.004 149.779 358.34 149.471C353.349 148.423 348.358 147.252 343.429 145.959C341.395 145.466 339.67 145.589 337.945 146.698C334.556 148.916 332.091 151.751 330.55 155.386C329.319 158.221 327.901 160.993 327.408 164.074C327.1 166.231 328.147 167.894 330.304 167.956C332.707 168.017 335.11 168.017 337.513 168.079C339.485 168.079 341.334 168.449 342.936 169.62C345.215 171.222 347.927 171.837 350.638 171.283C353.472 170.729 356.06 171.16 358.648 172.269C360.25 173.009 360.866 173.871 360.558 175.165C360.435 175.719 360.127 176.151 359.88 176.643C359.018 178.369 359.326 179.416 361.236 179.971C363.207 180.588 365.241 180.895 367.275 181.326C369.308 181.265 371.095 180.526 372.696 179.54C375.162 177.938 377.688 176.397 379.845 174.549C383.665 171.345 387.485 168.14 390.813 164.567C395.372 159.638 399.316 154.215 402.335 148.238C404.245 144.418 404.553 140.536 403.074 136.716C402.088 134.128 400.24 131.91 398.884 129.507Z" fill="black"/>
<path d="M330.859 171.469C329.319 172.763 327.717 173.749 325.868 174.611C324.019 175.535 324.019 177.261 325.868 178.185C327.902 179.232 330.058 180.033 332.215 180.772C334.001 181.389 335.357 180.711 335.974 179.048C336.467 177.815 336.651 176.459 336.898 175.228C336.774 174.611 336.713 174.118 336.59 173.687C336.035 171.839 333.015 169.62 330.859 171.469Z" fill="black"/>
<path d="M389.765 121.189C391.491 123.346 395.372 124.147 396.604 124.516C396.912 124.332 398.945 123.037 399.008 122.791C399.131 122.545 399.008 121.99 398.761 121.806C398.268 121.374 397.652 121.004 397.035 120.757C395.557 120.142 393.955 119.71 392.908 118.416C392.352 117.739 391.983 116.999 391.367 116.383C391.121 116.137 390.319 115.951 390.135 116.137C389.826 116.383 389.642 117.061 389.765 117.369C390.196 118.17 389.211 120.45 389.765 121.189Z" fill="black"/>
<path d="M62.9557 291.155C63.6161 291.815 64.0123 292.673 64.0123 293.73V340.551C64.0123 341.541 63.6821 342.399 62.9557 343.126C62.2293 343.786 61.3708 344.183 60.4463 344.183C59.4557 344.183 58.5972 343.853 57.8708 343.126C57.2105 342.466 56.8142 341.607 56.8142 340.551V306.211L40.1068 340.286C39.3143 341.475 38.2578 342.069 37.0031 342.069C35.4842 342.069 34.3615 341.343 33.7012 339.956L17.1919 306.872V340.616C17.1919 341.607 16.8617 342.466 16.1352 343.192C15.4748 343.853 14.6164 344.249 13.5597 344.249C12.5692 344.249 11.7107 343.918 10.9843 343.192C10.3239 342.531 9.92773 341.673 9.92773 340.616V293.796C9.92773 292.805 10.2579 291.947 10.9843 291.22C11.6447 290.56 12.5032 290.164 13.5597 290.164C14.9466 290.164 16.0031 290.824 16.7296 292.079L37.2672 333.221L57.2105 292.079C57.9369 290.758 58.9935 290.164 60.3802 290.164C61.3708 290.164 62.2293 290.494 62.9557 291.155Z" fill="black"/>
<path d="M118.493 340.615C118.493 341.606 118.163 342.398 117.437 343.125C116.777 343.785 115.919 344.182 114.862 344.182C114.201 344.182 113.541 343.984 112.88 343.587C112.286 343.191 111.824 342.663 111.56 341.936L107.663 332.229H82.8334L78.8712 341.936C78.541 342.597 78.0787 343.191 77.4844 343.587C76.8901 343.984 76.2297 344.182 75.5693 344.182C74.5787 344.182 73.7202 343.852 73.0599 343.125C72.3995 342.398 72.0693 341.541 72.0693 340.615C72.0693 340.154 72.2014 339.625 72.3995 339.03L91.8145 292.673C92.4749 291.087 93.6636 290.229 95.1824 290.229C96.8333 290.229 97.956 291.021 98.5503 292.673L118.032 339.163C118.362 339.691 118.493 340.219 118.493 340.615ZM105.286 326.285L95.3805 301.654L85.2768 326.285H105.286Z" fill="black"/>
<path d="M179.38 291.155C180.04 291.815 180.436 292.673 180.436 293.73V340.551C180.436 341.541 180.107 342.399 179.38 343.126C178.654 343.786 177.795 344.183 176.871 344.183C175.88 344.183 175.021 343.853 174.295 343.126C173.635 342.466 173.239 341.607 173.239 340.551V306.211L156.531 340.286C155.739 341.475 154.682 342.069 153.428 342.069C151.909 342.069 150.787 341.343 150.126 339.956L133.616 306.872V340.616C133.616 341.607 133.286 342.466 132.56 343.192C131.899 343.853 131.041 344.249 129.984 344.249C128.994 344.249 128.136 343.918 127.409 343.192C126.749 342.531 126.353 341.673 126.353 340.616V293.796C126.353 292.805 126.682 291.947 127.409 291.22C128.069 290.56 128.927 290.164 129.984 290.164C131.371 290.164 132.427 290.824 133.155 292.079L153.692 333.221L173.635 292.079C174.362 290.758 175.418 290.164 176.805 290.164C177.862 290.164 178.72 290.494 179.38 291.155Z" fill="black"/>
<path d="M247.266 291.155C247.927 291.815 248.323 292.673 248.323 293.73V340.551C248.323 341.541 247.993 342.399 247.266 343.126C246.54 343.786 245.682 344.183 244.757 344.183C243.766 344.183 242.908 343.853 242.182 343.126C241.521 342.466 241.125 341.607 241.125 340.551V306.211L224.417 340.286C223.625 341.475 222.569 342.069 221.313 342.069C219.795 342.069 218.672 341.343 218.011 339.956L201.503 306.872V340.616C201.503 341.607 201.172 342.466 200.446 343.192C199.786 343.853 198.927 344.249 197.87 344.249C196.88 344.249 196.022 343.918 195.295 343.192C194.635 342.531 194.238 341.673 194.238 340.616V293.796C194.238 292.805 194.569 291.947 195.295 291.22C195.955 290.56 196.814 290.164 197.87 290.164C199.257 290.164 200.314 290.824 201.04 292.079L221.578 333.221L241.521 292.079C242.247 290.758 243.304 290.164 244.691 290.164C245.747 290.164 246.54 290.494 247.266 291.155Z" fill="black"/>
<path d="M301.284 293.003C305.445 295.38 308.68 298.616 311.058 302.842C313.369 307.069 314.558 311.823 314.558 317.172C314.558 322.522 313.369 327.276 311.058 331.502C308.747 335.729 305.511 339.031 301.35 341.343C297.19 343.654 292.435 344.843 287.087 344.843C281.737 344.843 276.983 343.654 272.822 341.343C268.662 338.965 265.427 335.729 263.114 331.502C260.803 327.276 259.681 322.522 259.681 317.172C259.681 311.823 260.803 307.069 263.114 302.842C265.427 298.682 268.662 295.38 272.822 293.003C276.983 290.626 281.737 289.503 287.087 289.503C292.369 289.437 297.124 290.626 301.284 293.003ZM276.455 298.749C273.351 300.597 270.907 303.107 269.19 306.342C267.407 309.579 266.549 313.144 266.549 317.107C266.549 321.068 267.407 324.635 269.19 327.87C270.973 331.107 273.351 333.616 276.52 335.531C279.624 337.38 283.19 338.304 287.087 338.304C290.983 338.304 294.548 337.38 297.652 335.531C300.756 333.682 303.199 331.107 304.982 327.87C306.765 324.635 307.624 321.068 307.624 317.107C307.624 313.144 306.765 309.579 304.982 306.342C303.199 303.107 300.822 300.597 297.719 298.749C294.615 296.899 291.048 295.975 287.087 295.975C283.124 295.975 279.559 296.899 276.455 298.749Z" fill="black"/>
<path d="M358.407 291.088C359.001 291.683 359.332 292.475 359.332 293.466C359.332 294.457 359.001 295.249 358.407 295.844C357.812 296.438 357.021 296.768 356.03 296.768H341.171V340.551C341.171 341.541 340.841 342.399 340.115 343.126C339.454 343.786 338.596 344.183 337.539 344.183C336.548 344.183 335.69 343.853 334.963 343.126C334.303 342.466 333.907 341.607 333.907 340.551V296.768H319.049C318.058 296.768 317.266 296.438 316.671 295.844C316.077 295.249 315.747 294.457 315.747 293.466C315.747 292.475 316.077 291.683 316.671 291.088C317.266 290.494 318.058 290.164 319.049 290.164H356.03C357.021 290.164 357.812 290.429 358.407 291.088Z" fill="black"/>
<path d="M407.604 291.154C408.265 290.493 409.123 290.163 410.18 290.163C411.17 290.163 412.028 290.493 412.689 291.154C413.35 291.814 413.68 292.672 413.68 293.729V340.55C413.68 341.606 413.35 342.465 412.689 343.125C412.028 343.785 411.17 344.115 410.18 344.115C409.189 344.115 408.33 343.785 407.604 343.059C406.944 342.398 406.548 341.54 406.548 340.483V319.879H374.453V340.483C374.453 341.474 374.123 342.333 373.463 343.059C372.803 343.719 371.944 344.115 370.888 344.115C369.897 344.115 369.038 343.785 368.312 343.059C367.652 342.398 367.256 341.54 367.256 340.483V293.663C367.256 292.606 367.586 291.748 368.312 291.087C368.973 290.428 369.831 290.097 370.888 290.097C371.944 290.097 372.803 290.428 373.463 291.087C374.123 291.748 374.453 292.606 374.453 293.663V313.475H406.548V293.663C406.548 292.672 406.944 291.814 407.604 291.154Z" fill="black"/>
</g>
<defs>
<clipPath id="clip0_702_33">
<rect width="425" height="425" fill="white"/>
</clipPath>
</defs>
</svg>
