<?xml version="1.0" encoding="UTF-8"?>
<svg xmlns="http://www.w3.org/2000/svg" viewBox="0 0 333.21 51.77">
  <defs>
    <style>.cls-1{fill:#878787;}.cls-2{fill:#95c11f;}.cls-3{fill:#009fe3;}</style>
  </defs>
  <title>logo_plangis</title>
  <g id="Ebene_2" data-name="Ebene 2">
    <g id="content_Kopie_Kopie_Kopie" data-name="content Kopie Kopie Kopie">
      <path class="cls-1" d="M85.25,41.69V10.11a2.36,2.36,0,0,1,.68-1.7A2.24,2.24,0,0,1,87.6,7.7H107q15.35,0,15.35,14.14T107,36H94.81v5.71a2.38,2.38,0,0,1-2.38,2.38H87.65a2.34,2.34,0,0,1-1.7-.7A2.28,2.28,0,0,1,85.25,41.69ZM94.81,28.8h9.26a11.94,11.94,0,0,0,6.47-1.43q2.21-1.43,2.21-5.53t-2.21-5.53a12,12,0,0,0-6.47-1.43H94.81Z"></path>
      <path class="cls-1" d="M191.11,8.41a2,2,0,0,0-1.56-.71H175.87q-14.26,0-16.84,9.89l-5.09,19.3h-18.7V10.16a2.4,2.4,0,0,0-.7-1.75,2.28,2.28,0,0,0-1.69-.71h-4.77a2.32,2.32,0,0,0-1.7.71,2.38,2.38,0,0,0-.71,1.75V41.74a2.2,2.2,0,0,0,.71,1.66,2.38,2.38,0,0,0,1.7.67h31.33a3.06,3.06,0,0,0,1.88-.67,3,3,0,0,0,1.14-1.71l1.7-6.39h18v6.39a2.3,2.3,0,0,0,2.38,2.38h4.77a2.39,2.39,0,0,0,1.7-.67,2.2,2.2,0,0,0,.71-1.66V10.06A2.43,2.43,0,0,0,191.11,8.41Zm-8.94,19.71H166L168.24,20a6.75,6.75,0,0,1,6.7-5.1h7.23Z"></path>
      <path class="cls-1" d="M196.91,41.69V10.11a2.36,2.36,0,0,1,.68-1.7,2.24,2.24,0,0,1,1.67-.71h7.46a3.27,3.27,0,0,1,1.88.71,6.19,6.19,0,0,1,1.62,1.7l15.32,23.57V10.06a2.26,2.26,0,0,1,.7-1.67,2.32,2.32,0,0,1,1.69-.68h4.36a2.36,2.36,0,0,1,2.38,2.41V41.69a2.38,2.38,0,0,1-2.38,2.38h-8.42a3.64,3.64,0,0,1-2-.7,5.48,5.48,0,0,1-1.65-1.69l-14-21.76V41.69a2.38,2.38,0,0,1-2.38,2.38h-4.46a2.34,2.34,0,0,1-1.7-.7A2.28,2.28,0,0,1,196.91,41.69Z"></path>
      <path class="cls-2" d="M243.08,39.73q-4.5-4.54-4.5-13.89T243.28,12q4.71-4.5,14.12-4.5h5.66a19.41,19.41,0,0,1,10.11,2.68q4.5,2.68,4.5,6.68a2.47,2.47,0,0,1-.89,2.14,3,3,0,0,1-1.73.65h-3q-2.18,0-3.47-2.49t-6.39-2.49h-4.52q-5.55,0-7.53,2.38t-2,8.78q0,6.39,1.78,8.84t6.34,2.45h5.2q4.08,0,5.83-1.56a5.83,5.83,0,0,0,1.8-4.48h-5.73A2.38,2.38,0,0,1,261,28.7v-2a2.38,2.38,0,0,1,2.38-2.38h12.73a2.38,2.38,0,0,1,2.38,2.38v2.82q0,7.1-4.26,10.92t-12.51,3.82H256Q247.58,44.28,243.08,39.73Z"></path>
      <path class="cls-2" d="M282.38,41.74V10.11a2.42,2.42,0,0,1,2.41-2.41h4.72a2.4,2.4,0,0,1,2.43,2.41V41.69a2.26,2.26,0,0,1-.72,1.69,2.38,2.38,0,0,1-1.71.7h-4.72a2.38,2.38,0,0,1-1.7-.67A2.2,2.2,0,0,1,282.38,41.74Z"></path>
      <path class="cls-2" d="M295.85,34.76a2.47,2.47,0,0,1,.89-2.14,2.94,2.94,0,0,1,1.72-.65h3A3.76,3.76,0,0,1,305,34.46q1.19,2.49,5.35,2.49l8.88.18q4.46,0,4.46-2.92,0-2.21-5.45-3.47-2.43-.58-5.38-1.15T307,28.14a36,36,0,0,1-5.34-2,10.38,10.38,0,0,1-3.94-3.21,7.86,7.86,0,0,1-1.51-4.81,9.27,9.27,0,0,1,3.63-7.85q3.63-2.75,12.48-2.75l6.44.15a17,17,0,0,1,9.37,2.68Q332.27,13,332.27,17a2.51,2.51,0,0,1-.89,2.16,2.88,2.88,0,0,1-1.7.66h-3a3.76,3.76,0,0,1-3.48-2.5q-1.19-2.5-5.35-2.5l-7.63-.15q-4.46,0-4.46,2.92,0,1.6,2.83,2.61A46.62,46.62,0,0,0,315.42,22q4,.77,8.08,1.86a16.83,16.83,0,0,1,6.89,3.59,8,8,0,0,1,2.83,6.23,9.25,9.25,0,0,1-3.64,7.85q-3.64,2.75-12.47,2.75l-7.69-.15A17.06,17.06,0,0,1,300,41.45Q295.85,38.77,295.85,34.76Z"></path>
      <path class="cls-2" d="M0,28.76H41.08s10.16-7.58,16.52-14.38A24.62,24.62,0,0,0,64.27,0H31.32S29.7,7.63,25.41,12.07,0,28.76,0,28.76Z"></path>
      <path class="cls-1" d="M58.69,28.66C52.32,35.48,42.39,42.91,42,43.22l-.4.3h-28C6.88,47.77,0,51.77,0,51.77H41.08s10.16-7.58,16.52-14.38A24.62,24.62,0,0,0,64.27,23H62.76A27.27,27.27,0,0,1,58.69,28.66Z"></path>
      <path class="cls-3" d="M58.69,17.41C52.32,24.22,42.39,31.65,42,32l-.4.3H12.81C6.36,36.33,0,40,0,40H41.08s10.16-7.58,16.52-14.38a24.62,24.62,0,0,0,6.68-14.38H63A27.22,27.22,0,0,1,58.69,17.41Z"></path>
    </g>
  </g>
</svg>
