<svg width="153" height="48" viewBox="0 0 153 48" fill="none" xmlns="http://www.w3.org/2000/svg">
<g id="Quartile Logo">
<path id="Vector" d="M19.5354 43.0652L21.8166 45.4166L19.3216 47.6761L16.9488 45.2327C15.2539 46.2229 13.2811 46.8116 11.1862 46.8116C5.02356 46.8116 0 41.8634 0 35.5816C0 29.2997 5.02356 24.3516 11.1862 24.3516C17.3488 24.3516 22.3724 29.2997 22.3724 35.5816C22.3724 38.4879 21.2944 41.1184 19.5384 43.0682L19.5354 43.0652ZM14.4202 42.6329L10.4747 38.5799L12.9696 36.3204L17.0984 40.5574C18.1764 39.2268 18.8238 37.5253 18.8238 35.5754C18.8238 31.1208 15.4341 27.8098 11.1801 27.8098C6.9261 27.8098 3.53939 31.1208 3.53939 35.5754C3.53939 40.03 6.92915 43.3411 11.1801 43.3411C12.3528 43.3411 13.4308 43.0928 14.4172 42.6298L14.4202 42.6329Z" fill="#0002E9"/>
<path id="Vector_2" d="M39.2057 30.9399V46.4099H35.877V44.4294C34.8601 46.039 33.1958 46.8116 31.1008 46.8116C27.65 46.8116 25.1855 44.4601 25.1855 40.4378V30.9399H28.5142V40.0975C28.5142 42.4489 29.8701 43.6875 31.9651 43.6875C34.06 43.6875 35.8801 42.3876 35.8801 39.2329V30.943H39.2088L39.2057 30.9399Z" fill="#0002E9"/>
<path id="Vector_3" d="M58.2066 30.9399V46.4099H54.8779V44.1811C53.7083 45.8213 51.8882 46.8116 49.4848 46.8116C45.2919 46.8116 41.8105 43.2553 41.8105 38.675C41.8105 34.0947 45.2919 30.5383 49.4848 30.5383C51.8882 30.5383 53.7052 31.5286 54.8779 33.1381V30.9399H58.2066ZM54.8779 38.675C54.8779 35.7962 52.783 33.7237 50.0101 33.7237C47.2372 33.7237 45.1423 35.7962 45.1423 38.675C45.1423 41.5537 47.2372 43.6231 50.0101 43.6231C52.783 43.6231 54.8779 41.5507 54.8779 38.675Z" fill="#0002E9"/>
<path id="Vector_4" d="M69.7794 30.661V34.2787C67.5929 34.1254 65.0338 35.1463 65.0338 38.6106V46.4069H61.7051V30.9369H65.0338V33.5337C65.9591 31.4305 67.8372 30.658 69.7794 30.658V30.661Z" fill="#0002E9"/>
<path id="Vector_5" d="M74.9584 34.156V41.5814C74.9584 43.5619 76.2533 43.5312 78.7818 43.4086V46.41C73.6667 47.0293 71.6328 45.6037 71.6328 41.5844V27.6013L74.9615 26.6111V30.9431H78.7849V34.1621H74.9615L74.9584 34.156Z" fill="#0002E9"/>
<path id="Vector_6" d="M80.6895 26.4854C80.6895 25.3112 81.6453 24.3516 82.818 24.3516C83.9906 24.3516 84.9434 25.3112 84.9434 26.4854C84.9434 27.6596 83.9876 28.6191 82.818 28.6191C81.6484 28.6191 80.6895 27.6289 80.6895 26.4854ZM81.1506 30.94H84.4793V46.41H81.1506V30.94Z" fill="#0002E9"/>
<path id="Vector_7" d="M86.9738 38.675C86.9738 34.064 90.4551 30.5383 95.1092 30.5383C98.1294 30.5383 100.75 32.1172 101.98 34.53L99.1127 36.2009C98.4348 34.7477 96.9262 33.8187 95.0756 33.8187C92.3638 33.8187 90.2994 35.8912 90.2994 38.675C90.2994 41.4587 92.3638 43.5312 95.0756 43.5312C96.9262 43.5312 98.4348 42.5716 99.1738 41.149L102.038 42.7892C100.743 45.2327 98.1264 46.8116 95.1061 46.8116C90.4521 46.8116 86.9707 43.2553 86.9707 38.675H86.9738Z" fill="#0002E9"/>
<path id="Vector_8" d="M104.205 23.8242H107.534V46.4099H104.205V23.8242Z" fill="#0002E9"/>
<path id="Vector_9" d="M118.543 43.7488C120.391 43.7488 121.777 42.9149 122.519 41.8296L125.262 43.4392C123.845 45.5423 121.533 46.8116 118.513 46.8116C113.428 46.8116 110.133 43.3166 110.133 38.675C110.133 34.0333 113.428 30.5383 118.268 30.5383C123.109 30.5383 126.004 34.251 126.004 38.7056C126.004 39.1716 125.943 39.6652 125.881 40.0975H113.617C114.142 42.5103 116.082 43.7488 118.549 43.7488H118.543ZM122.641 37.3751C122.18 34.7139 120.238 33.5704 118.235 33.5704C115.74 33.5704 114.045 35.0542 113.581 37.3751H122.641Z" fill="#0002E9"/>
<path id="Vector_10" d="M139.499 30.9398C139.3 30.9398 139.102 30.8877 138.922 30.7835L136.405 29.3242C135.853 29.0053 135.663 28.2971 135.984 27.7422C136.301 27.1873 137.007 26.9972 137.56 27.3191L139.502 28.4443L149.54 22.6254L145.674 20.3843L133.907 27.2057C133.55 27.4142 133.11 27.4111 132.753 27.2057L126.581 23.6279C126.224 23.4194 126.004 23.0393 126.004 22.6254C126.004 22.2115 126.224 21.8283 126.581 21.6229L129.097 20.1636C129.65 19.8447 130.356 20.0348 130.673 20.5866C130.991 21.1416 130.801 21.8497 130.252 22.1686L129.464 22.6254L133.33 24.8665L145.096 18.0451C145.454 17.8366 145.894 17.8397 146.251 18.0451L152.423 21.6229C152.78 21.8314 153 22.2115 153 22.6254C153 23.0393 152.78 23.4225 152.423 23.6279L140.079 30.7835C139.902 30.8877 139.7 30.9398 139.502 30.9398H139.499Z" fill="url(#paint0_linear_4968_4238)"/>
<path id="Vector_11" d="M133.326 20.2065C133.128 20.2065 132.929 20.1544 132.749 20.0502L126.577 16.4724C126.22 16.267 126 15.8838 126 15.4699C126 15.056 126.22 14.6728 126.577 14.4674L129.094 13.0081C129.646 12.6892 130.352 12.8793 130.669 13.4311C130.987 13.986 130.798 14.6942 130.248 15.0131L129.46 15.4699L133.326 17.711L145.093 10.8896C145.45 10.6811 145.89 10.6842 146.247 10.8896L152.419 14.4674C152.776 14.6758 152.996 15.056 152.996 15.4699C152.996 15.8838 152.776 16.267 152.419 16.4724L149.902 17.9317C149.35 18.2506 148.644 18.0605 148.327 17.5086C148.009 16.9537 148.198 16.2455 148.748 15.9267L149.536 15.4699L145.67 13.2288L133.903 20.0502C133.726 20.1544 133.525 20.2065 133.326 20.2065Z" fill="url(#paint1_linear_4968_4238)"/>
<path id="Vector_12" d="M133.326 13.0511C133.128 13.0511 132.929 12.999 132.749 12.8947L126.577 9.31695C126.22 9.11154 126 8.72832 126 8.31444C126 7.90055 126.22 7.51733 126.577 7.31192L138.921 0.156356C139.278 -0.0521185 139.718 -0.0521185 140.075 0.156356L142.591 1.61567C143.144 1.93451 143.334 2.64271 143.013 3.19762C142.695 3.75253 141.99 3.93955 141.437 3.6207L139.495 2.49556L129.457 8.31444L133.323 10.5555L145.09 3.73414C145.447 3.52566 145.887 3.52873 146.244 3.73414L152.416 7.31192C152.773 7.52039 152.993 7.90055 152.993 8.31444C152.993 8.72832 152.773 9.11154 152.416 9.31695L149.899 10.7763C149.347 11.0951 148.641 10.905 148.324 10.3532C148.006 9.79828 148.195 9.09008 148.745 8.77124L149.533 8.31444L145.667 6.07334L133.9 12.8947C133.723 12.999 133.522 13.0511 133.323 13.0511H133.326Z" fill="url(#paint2_linear_4968_4238)"/>
<path id="Vector_13" d="M147.268 0.00292969V0.603828H148.052V2.99514H148.678V0.603828H149.463V0.00292969H147.268Z" fill="#00D1C6"/>
<path id="Vector_14" d="M152.359 0.00292969L151.51 1.39787L150.661 0.00292969H150.02V2.99514H150.646V1.11888L151.491 2.51382H151.528L152.374 1.11888V2.99514H153V0.00292969H152.359Z" fill="#00D1C6"/>
</g>
<defs>
<linearGradient id="paint0_linear_4968_4238" x1="132.988" y1="18.8024" x2="147.244" y2="27.1081" gradientUnits="userSpaceOnUse">
<stop stop-color="#005EFF"/>
<stop offset="0.44" stop-color="#0037F5"/>
<stop offset="1" stop-color="#0002E9"/>
</linearGradient>
<linearGradient id="paint1_linear_4968_4238" x1="133.207" y1="10.9172" x2="144.781" y2="19.2285" gradientUnits="userSpaceOnUse">
<stop stop-color="#0098E3"/>
<stop offset="0.67" stop-color="#0072F5"/>
<stop offset="1" stop-color="#005EFF"/>
</linearGradient>
<linearGradient id="paint2_linear_4968_4238" x1="133.424" y1="4.36876" x2="147.149" y2="13.2168" gradientUnits="userSpaceOnUse">
<stop stop-color="#00D1C6"/>
<stop offset="0.68" stop-color="#00ABD9"/>
<stop offset="1" stop-color="#0098E3"/>
</linearGradient>
</defs>
</svg>
