<?xml version="1.0" encoding="UTF-8" standalone="no"?>
<svg
   sodipodi:docname="nomeshlogo.svg"
   inkscape:version="1.1.1 (3bf5ae0d25, 2021-09-20)"
   id="svg219"
   version="1.1"
   viewBox="0 0 874.06567 687.66178"
   height="687.66174"
   width="874.06561"
   inkscape:export-filename="C:\Users\Geert\Dropbox (b3partners)\CursusTailormap\22_07_tailormap sticker groot.png"
   inkscape:export-xdpi="96"
   inkscape:export-ydpi="96"
   xmlns:inkscape="http://www.inkscape.org/namespaces/inkscape"
   xmlns:sodipodi="http://sodipodi.sourceforge.net/DTD/sodipodi-0.dtd"
   xmlns:xlink="http://www.w3.org/1999/xlink"
   xmlns="http://www.w3.org/2000/svg"
   xmlns:svg="http://www.w3.org/2000/svg"
   xmlns:rdf="http://www.w3.org/1999/02/22-rdf-syntax-ns#"
   xmlns:cc="http://creativecommons.org/ns#"
   xmlns:dc="http://purl.org/dc/elements/1.1/">
  <defs
     id="defs213">
    <linearGradient
       inkscape:collect="always"
       id="paars-donkerpaars">
      <stop
         style="stop-color:#6326ff;stop-opacity:1;"
         offset="0"
         id="stop9326" />
      <stop
         style="stop-color:#8355f6;stop-opacity:1"
         offset="1"
         id="stop9328" />
    </linearGradient>
    <clipPath
       clipPathUnits="userSpaceOnUse"
       id="clipPath6722">
      <path
         id="lpe_path-effect6726"
         style="font-variation-settings:normal;opacity:1;vector-effect:none;fill:#6326ff;fill-opacity:1;stroke:none;stroke-width:0.363;stroke-linecap:butt;stroke-linejoin:miter;stroke-miterlimit:4;stroke-dasharray:none;stroke-dashoffset:0;stroke-opacity:1;-inkscape-stroke:none;paint-order:normal;stop-color:#000000;stop-opacity:1"
         class="powerclip"
         d="M 73.902386,58.795846 H 117.90995 V 99.140087 H 73.902386 Z M -134.73199,-60.516636 v 16.832228 h 35.301826 v -16.832228 z" />
    </clipPath>
    <linearGradient
       inkscape:collect="always"
       xlink:href="#paars-donkerpaars"
       id="linearGradient9605"
       x1="11.66"
       y1="74.650002"
       x2="163.36"
       y2="74.650002"
       gradientUnits="userSpaceOnUse" />
    <linearGradient
       inkscape:collect="always"
       xlink:href="#paars-donkerpaars"
       id="linearGradient9613"
       x1="54.990002"
       y1="59.029999"
       x2="141.33"
       y2="59.029999"
       gradientUnits="userSpaceOnUse" />
    <linearGradient
       inkscape:collect="always"
       xlink:href="#paars-donkerpaars"
       id="linearGradient9551"
       gradientUnits="userSpaceOnUse"
       x1="243.25"
       y1="88.544998"
       x2="808.09998"
       y2="88.544998" />
    <linearGradient
       inkscape:collect="always"
       xlink:href="#paars-donkerpaars"
       id="linearGradient12358"
       gradientUnits="userSpaceOnUse"
       x1="243.25"
       y1="88.544998"
       x2="808.09998"
       y2="88.544998" />
    <linearGradient
       inkscape:collect="always"
       xlink:href="#paars-donkerpaars"
       id="linearGradient12360"
       gradientUnits="userSpaceOnUse"
       x1="243.25"
       y1="88.544998"
       x2="808.09998"
       y2="88.544998" />
    <linearGradient
       inkscape:collect="always"
       xlink:href="#paars-donkerpaars"
       id="linearGradient12362"
       gradientUnits="userSpaceOnUse"
       x1="243.25"
       y1="88.544998"
       x2="808.09998"
       y2="88.544998" />
    <linearGradient
       inkscape:collect="always"
       xlink:href="#paars-donkerpaars"
       id="linearGradient12364"
       gradientUnits="userSpaceOnUse"
       x1="243.25"
       y1="88.544998"
       x2="808.09998"
       y2="88.544998" />
    <linearGradient
       inkscape:collect="always"
       xlink:href="#paars-donkerpaars"
       id="linearGradient12366"
       gradientUnits="userSpaceOnUse"
       x1="243.25"
       y1="88.544998"
       x2="808.09998"
       y2="88.544998" />
    <linearGradient
       inkscape:collect="always"
       xlink:href="#paars-donkerpaars"
       id="linearGradient12368"
       gradientUnits="userSpaceOnUse"
       x1="243.25"
       y1="88.544998"
       x2="808.09998"
       y2="88.544998" />
    <linearGradient
       inkscape:collect="always"
       xlink:href="#paars-donkerpaars"
       id="linearGradient12370"
       gradientUnits="userSpaceOnUse"
       x1="243.25"
       y1="88.544998"
       x2="808.09998"
       y2="88.544998" />
    <linearGradient
       inkscape:collect="always"
       xlink:href="#paars-donkerpaars"
       id="linearGradient12372"
       gradientUnits="userSpaceOnUse"
       x1="243.25"
       y1="88.544998"
       x2="808.09998"
       y2="88.544998" />
    <linearGradient
       inkscape:collect="always"
       xlink:href="#paars-donkerpaars"
       id="linearGradient12374"
       gradientUnits="userSpaceOnUse"
       x1="243.25"
       y1="88.544998"
       x2="808.09998"
       y2="88.544998" />
    <linearGradient
       inkscape:collect="always"
       xlink:href="#paars-donkerpaars"
       id="linearGradient12376"
       gradientUnits="userSpaceOnUse"
       x1="11.66"
       y1="74.650002"
       x2="163.36"
       y2="74.650002" />
    <linearGradient
       inkscape:collect="always"
       xlink:href="#paars-donkerpaars"
       id="linearGradient12378"
       gradientUnits="userSpaceOnUse"
       x1="54.990002"
       y1="59.029999"
       x2="141.33"
       y2="59.029999" />
  </defs>
  <sodipodi:namedview
     inkscape:window-maximized="0"
     inkscape:window-y="68"
     inkscape:window-x="389"
     inkscape:window-height="969"
     inkscape:window-width="1381"
     inkscape:showpageshadow="false"
     fit-margin-bottom="3"
     fit-margin-right="3"
     fit-margin-left="3"
     fit-margin-top="3"
     showgrid="false"
     inkscape:document-rotation="0"
     inkscape:current-layer="layer2"
     inkscape:document-units="px"
     inkscape:cy="533.55626"
     inkscape:cx="538.16382"
     inkscape:zoom="0.54258571"
     inkscape:pageshadow="2"
     inkscape:pageopacity="0"
     borderopacity="1.0"
     bordercolor="#666666"
     pagecolor="#262626"
     id="base"
     inkscape:pagecheckerboard="0"
     width="327.35092mm"
     units="px"
     borderlayer="true" />
  <metadata
     id="metadata216">
    <rdf:RDF>
      <cc:Work
         rdf:about="">
        <dc:format>image/svg+xml</dc:format>
        <dc:type
           rdf:resource="http://purl.org/dc/dcmitype/StillImage" />
      </cc:Work>
    </rdf:RDF>
  </metadata>
  <g
     sodipodi:insensitive="true"
     transform="translate(241.37441,-224.47038)"
     id="layer1"
     inkscape:groupmode="layer"
     inkscape:label="Canvas"
     style="display:inline">
    <rect
       y="-77.14286"
       x="-260"
       height="1280"
       width="1280"
       id="rect2128"
       style="fill:#ffffff;stroke-width:1.5;stroke-linecap:round" />
  </g>
  <g
     inkscape:label="Contents"
     id="layer2"
     inkscape:groupmode="layer"
     transform="translate(-18.625596,-301.61324)">
    <g
       id="g9513"
       transform="matrix(1.5368073,0,0,1.5368073,-352.20278,756.35327)"
       style="display:inline;fill:url(#linearGradient9551);fill-opacity:1;stroke-width:0.465067"
       inkscape:export-filename="C:\Users\Geert\Desktop\test.png"
       inkscape:export-xdpi="99.544167"
       inkscape:export-ydpi="99.544167">
      <path
         class="st0"
         d="m 300.24,31.55 v 12.21 h -22.39 v 73.28 H 265.64 V 43.76 H 243.25 V 31.55 Z"
         id="path9495"
         style="fill:url(#linearGradient12358);fill-opacity:1;stroke-width:0.465067" />
      <path
         class="st0"
         d="m 365.38,55.98 v 61.07 h -12.21 v -8.91 c -4.96,6.49 -12.09,9.93 -20.36,9.93 -17.81,0 -30.53,-14.12 -30.53,-31.55 0,-17.43 12.72,-31.55 30.53,-31.55 8.27,0 15.39,3.44 20.36,9.93 v -8.91 h 12.21 z m -12.21,30.53 c 0,-10.69 -8.65,-19.34 -19.34,-19.34 -10.69,0 -19.34,8.65 -19.34,19.34 0,10.69 8.65,19.34 19.34,19.34 10.69,0 19.34,-8.65 19.34,-19.34 z"
         id="path9497"
         style="fill:url(#linearGradient12360);fill-opacity:1;stroke-width:0.465067" />
      <path
         class="st0"
         d="m 379.62,36.64 c 0,-5.09 4.07,-9.16 9.16,-9.16 5.09,0 9.16,4.07 9.16,9.16 0,5.09 -4.07,9.16 -9.16,9.16 -5.08,0 -9.16,-4.07 -9.16,-9.16 z m 3.06,19.34 h 12.21 v 61.07 h -12.21 z"
         id="path9499"
         style="fill:url(#linearGradient12362);fill-opacity:1;stroke-width:0.465067" />
      <path
         class="st0"
         d="m 424.41,27.48 v 89.57 H 412.2 V 27.48 Z"
         id="path9501"
         style="fill:url(#linearGradient12364);fill-opacity:1;stroke-width:0.465067" />
      <path
         class="st0"
         d="m 499.72,86.51 c 0,17.43 -14.12,31.55 -31.55,31.55 -17.43,0 -31.55,-14.12 -31.55,-31.55 0,-17.43 14.12,-31.55 31.55,-31.55 17.43,0 31.55,14.12 31.55,31.55 z m -12.21,0 c 0,-10.56 -8.78,-19.34 -19.34,-19.34 -10.56,0 -19.34,8.78 -19.34,19.34 0,10.56 8.78,19.34 19.34,19.34 10.56,0 19.34,-8.78 19.34,-19.34 z"
         id="path9503"
         style="fill:url(#linearGradient12366);fill-opacity:1;stroke-width:0.465067" />
      <path
         class="st0"
         d="m 548.57,54.96 v 13.36 c -2.93,-0.89 -7.38,-0.89 -11.2,0.51 -8.02,3.05 -13.23,9.8 -13.23,20.99 v 27.23 H 511.93 V 55.98 h 12.21 v 13.11 c 4.2,-8.79 12.98,-14.13 24.43,-14.13 z"
         id="path9505"
         style="fill:url(#linearGradient12368);fill-opacity:1;stroke-width:0.465067" />
      <path
         class="st0"
         d="m 652.39,82.95 v 34.1 h -12.21 v -34.1 c 0,-9.8 -3.31,-15.78 -11.7,-15.78 -7.38,0 -14.76,5.85 -14.76,16.29 v 33.59 h -12.21 v -34.1 c 0,-9.8 -3.31,-15.78 -11.71,-15.78 -7.38,0 -14.76,5.85 -14.76,16.29 v 33.59 H 562.83 V 55.98 h 12.21 v 7.12 c 3.56,-4.07 7.51,-8.14 17.05,-8.14 7.89,0 13.87,3.31 17.56,9.67 6.49,-7 12.47,-9.67 21.12,-9.67 13.47,0 21.62,9.92 21.62,27.99 z"
         id="path9507"
         style="fill:url(#linearGradient12370);fill-opacity:1;stroke-width:0.465067" />
      <path
         class="st0"
         d="m 727.69,55.98 v 61.07 h -12.21 v -8.91 c -4.96,6.49 -12.09,9.93 -20.36,9.93 -17.81,0 -30.53,-14.12 -30.53,-31.55 0,-17.43 12.72,-31.55 30.53,-31.55 8.27,0 15.39,3.44 20.36,9.93 v -8.91 h 12.21 z m -12.21,30.53 c 0,-10.69 -8.65,-19.34 -19.34,-19.34 -10.69,0 -19.34,8.65 -19.34,19.34 0,10.69 8.65,19.34 19.34,19.34 10.69,0 19.34,-8.65 19.34,-19.34 z"
         id="path9509"
         style="fill:url(#linearGradient12372);fill-opacity:1;stroke-width:0.465067" />
      <path
         class="st0"
         d="m 808.1,86.51 c 0,17.43 -12.72,31.55 -30.53,31.55 -8.27,0 -15.39,-3.44 -20.36,-9.93 v 41.48 H 745 V 55.98 h 12.21 v 8.91 c 4.96,-6.49 12.09,-9.93 20.36,-9.93 17.8,0 30.53,14.12 30.53,31.55 z m -12.22,0 c 0,-10.69 -8.65,-19.34 -19.34,-19.34 -10.69,0 -19.34,8.65 -19.34,19.34 0,10.69 8.65,19.34 19.34,19.34 10.69,0 19.34,-8.65 19.34,-19.34 z"
         id="path9511"
         style="display:inline;fill:url(#linearGradient12374);fill-opacity:1;stroke-width:0.465067" />
    </g>
    <g
       id="g9519"
       transform="matrix(5.2109643,0.79289808,-0.79289808,5.2109643,75.424013,103.53191)"
       inkscape:export-filename="C:\Users\Geert\Documents\b3\22_07_sticker_tailormap_groot.png"
       inkscape:export-xdpi="300"
       inkscape:export-ydpi="300"
       style="fill:url(#linearGradient9605);fill-opacity:1;stroke-width:0.160799"
       sodipodi:insensitive="true">
      <polygon
         class="st0"
         points="58,41.92 103.89,31.3 109.98,26.3 121.72,24.22 109.62,22.75 58.97,35.18 39.88,32.52 11.66,115.59 44.66,126.55 119.93,101.61 163.36,112.6 137.36,33.66 129.68,39.09 139.34,90.25 117.84,85.23 47.4,108.51 35.61,105.19 49.88,40.93 "
         id="polygon9517"
         style="fill:url(#linearGradient12376);fill-opacity:1;stroke-width:0.160799" />
    </g>
    <g
       id="g9523"
       transform="matrix(5.2109643,0.79289808,-0.79289808,5.2109643,75.424013,103.53191)"
       inkscape:export-filename="C:\Users\Geert\Documents\b3\22_07_sticker_tailormap_groot.png"
       inkscape:export-xdpi="300"
       inkscape:export-ydpi="300"
       style="fill:url(#linearGradient9613);fill-opacity:1;stroke-width:0.160799"
       sodipodi:insensitive="true">
      <polygon
         class="st0"
         points="107.44,51.06 112.39,44.32 141.33,25.75 132.81,23.76 110.74,31.98 93.44,51.06 76.19,69.95 62.79,58.5 54.99,59.83 76.47,94.3 "
         id="polygon9521"
         style="fill:url(#linearGradient12378);fill-opacity:1;stroke-width:0.160799" />
    </g>
    <polygon
       class="st0"
       points="55.09,59.81 54.99,59.83 55.07,59.95 "
       id="polygon9529"
       transform="matrix(5.2109643,0.79289808,-0.79289808,5.2109643,75.424013,103.53191)"
       inkscape:export-filename="C:\Users\Geert\Documents\b3\22_07_sticker_tailormap_groot.png"
       inkscape:export-xdpi="300"
       inkscape:export-ydpi="300"
       style="fill:#6236ff;stroke-width:0.160799"
       sodipodi:insensitive="true" />
    <path
       style="fill:#000000;fill-opacity:0.116049;stroke:none;stroke-width:0.847559px;stroke-linecap:butt;stroke-linejoin:miter;stroke-opacity:1"
       d="m 236.38635,706.55698 -28.58193,91.83325 412.00417,-70.28001 2.09675,-87.01275 z"
       id="path9667"
       inkscape:export-filename="C:\Users\Geert\Documents\b3\22_07_sticker_tailormap_groot.png"
       inkscape:export-xdpi="300"
       inkscape:export-ydpi="300"
       sodipodi:insensitive="true" />
    <path
       style="font-variation-settings:normal;vector-effect:none;fill:#000000;fill-opacity:0.116049;stroke:none;stroke-width:0.847559px;stroke-linecap:butt;stroke-linejoin:miter;stroke-miterlimit:4;stroke-dasharray:none;stroke-dashoffset:0;stroke-opacity:1;-inkscape-stroke:none;stop-color:#000000"
       d="m 354.82043,333.61079 -10.39878,34.35279 247.55173,-18.95434 35.69926,-21.22608 0.93884,-18.78436 z"
       id="path11096"
       inkscape:export-filename="C:\Users\Geert\Documents\b3\22_07_sticker_tailormap_groot.png"
       inkscape:export-xdpi="300"
       inkscape:export-ydpi="300"
       sodipodi:insensitive="true" />
    <path
       style="font-variation-settings:normal;display:inline;vector-effect:none;fill:#000000;fill-opacity:0.116049;stroke:none;stroke-width:0.847559px;stroke-linecap:butt;stroke-linejoin:miter;stroke-miterlimit:4;stroke-dasharray:none;stroke-dashoffset:0;stroke-opacity:1;-inkscape-stroke:none;stop-color:#000000"
       d="m 314.85758,459.59408 84.27859,195.96464 226.80688,-231.9631 1.18627,-65.61158 -210.14516,170.46569 -60.74824,-70.29037 z"
       id="path11316"
       inkscape:export-filename="C:\Users\Geert\Documents\b3\22_07_sticker_tailormap_groot.png"
       inkscape:export-xdpi="300"
       inkscape:export-ydpi="300"
       sodipodi:insensitive="true" />
  </g>
  <inkscape:templateinfo>
    <inkscape:name>Dark Canvas</inkscape:name>
    <inkscape:date>2020-07-13</inkscape:date>
  </inkscape:templateinfo>
  <inkscape:templateinfo>
    <inkscape:name>Dark Canvas Template online</inkscape:name>
    <inkscape:date>2021-07-14</inkscape:date>
  </inkscape:templateinfo>
</svg>
