<?xml version="1.0" encoding="utf-8"?>
<!-- Generator: Adobe Illustrator 26.0.3, SVG Export Plug-In . SVG Version: 6.00 Build 0)  -->
<svg version="1.1" xmlns="http://www.w3.org/2000/svg" xmlns:xlink="http://www.w3.org/1999/xlink" x="0px" y="0px"
	 viewBox="0 0 396.9 396.9" style="enable-background:new 0 0 396.9 396.9;" xml:space="preserve">
<style type="text/css">
	.st0{fill:#FFFFFF;}
	.st1{fill:#E20074;}
</style>
<g id="Hintergrund">
	<rect class="st0" width="396.9" height="396.9"/>
</g>
<g id="Telekom_Logo">
	<path class="st1" d="M136.1,243.8H79.4v-56.7h28.3h28.3V243.8z M79.4,56.7v96.4h17v-2.8c0-45.4,25.5-73.7,73.7-73.7h2.8v204.1
		c0,28.3-11.3,39.7-39.7,39.7h-8.5v19.8h147.4v-19.8h-8.5c-28.3,0-39.7-11.3-39.7-39.7V76.5h2.8c48.2,0,73.7,28.3,73.7,73.7v2.8h17
		V56.7H79.4z M260.8,243.8h56.7v-56.7h-28.3h-28.3V243.8z"/>
</g>
</svg>
